<?xml version="1.0" encoding="UTF-8"?>
<!DOCTYPE svg PUBLIC "-//W3C//DTD SVG 1.1//EN" "http://www.w3.org/Graphics/SVG/1.1/DTD/svg11.dtd">
<!-- Creator: CorelDRAW (Wersja OEM) -->
<svg xmlns="http://www.w3.org/2000/svg" xml:space="preserve" width="297mm" height="210mm" version="1.1" style="shape-rendering:geometricPrecision; text-rendering:geometricPrecision; image-rendering:optimizeQuality; fill-rule:evenodd; clip-rule:evenodd"
viewBox="0 0 29700 21000"
 xmlns:xlink="http://www.w3.org/1999/xlink"
 xmlns:xodm="http://www.corel.com/coreldraw/odm/2003">
 <defs>
  <style type="text/css">
   <![CDATA[
    .fil4 {fill:#4777A6}
    .fil0 {fill:#5080B4}
    .fil5 {fill:#5B9ED0}
    .fil1 {fill:#69AADD}
    .fil2 {fill:#898989}
    .fil3 {fill:#C5C6C6}
   ]]>
  </style>
 </defs>
 <g id="Warstwa_x0020_1">
  <metadata id="CorelCorpID_0Corel-Layer"/>
  <path class="fil0" d="M7814.82 8067.59c0,0 200.14,-16.54 788.34,230.42l1539.21 646.27c147.32,-174.3 224.9,-478.51 -80.89,-737.39 -152.27,-128.92 -539.21,-301.52 -831.74,-401.62 -434.49,-148.73 -991.1,61.72 -1414.92,262.32zm-1052.25 519.29l1646.95 689.51c299.73,125.48 834.64,221.05 1502.54,-127.6 -1200.14,-498.88 -1829.38,-763.71 -1952.09,-817.92 -122.68,-54.21 -742.65,-186.02 -1197.4,256.01z"/>
  <path class="fil1" d="M6762.57 8586.88c0,0 -175.64,156.64 -260.71,352.71 -80.5,185.55 -291.03,669.24 -329.08,894.66 -38.03,225.46 -31.74,802.06 240.81,1240.57 31.33,-225.96 126.31,-404.47 224.86,-646.05l659.95 -1617.55 -535.83 -224.34zm1466.38 613.92l-675.48 -282.79 -800 1994.33c-153.29,382.19 -36.86,931.36 287.79,1178.94l1187.69 -2890.48z"/>
  <path class="fil0" d="M9764.84 11460.89c0,0 584.14,-1472.93 656.3,-1608.89 227.26,-428.21 666.06,-843.96 1216.28,-837.96 -363.66,259.5 -499.91,815.89 -616.11,1126.94 -116.22,311.05 -355.62,1316.81 -726.93,1550.91 -306.72,-134.27 -529.54,-231 -529.54,-231zm-898.84 -387.42c0,0 121.65,-372.2 347.07,-731.04 221.88,-353.25 741.46,-791.93 1170.98,-801.61 -144.75,118.27 -282.52,367.52 -356.37,537.55 -73.85,170.02 -513.65,1274.06 -513.65,1274.06l-648.03 -278.96z"/>
  <path class="fil1" d="M9345.18 12246.37c-229.07,-8.92 -462.08,-106.36 -639.53,-181.02l-1411.12 -593.57 -253.27 619.51c298.56,199.77 814.48,409.64 1196,427.39 348.11,16.22 925.54,-116.52 1107.92,-272.31zm-158.65 -296.57c194.28,81.95 529.03,169.83 1107.85,-257.91 -873.45,-382.34 -1750.24,-757.5 -2627.17,-1131.75l-261.11 638.69 1780.43 750.97z"/>
  <path class="fil2" d="M12988.95 9410.43l806.79 0 0 1241.05 -806.79 0 0 -1241.05zm1795.77 -1359.2l0 3210.15 612.3 0 0 -2775.82c0,-240.27 -194.1,-434.33 -434.35,-434.33l-177.95 0zm-1101.64 3562.8l-1120.39 0 0 609.9 1187.66 0c463.5,0 584.77,-523.84 636.47,-854.74 -198.84,187.04 -494.58,244.84 -703.74,244.84zm-872.89 -352.65l1312.04 0c156.07,0 283.41,-127.34 283.41,-283.4l0 -1678.84c0,-278.1 -221.56,-498.63 -499.42,-498.63l-1030.95 0c-278.36,0 -498.63,220.29 -498.63,498.63l0 1527.91c0,240.58 192.71,434.33 433.55,434.33z"/>
  <path class="fil3" d="M15776.1 9234.03l0 626.27c0,273.34 218.6,489.9 491.5,489.9l714.99 0 0 301.28 -1206.49 0 0 609.9 1382.06 0c241.44,0 434.32,-192.94 434.32,-434.33l0 -653.23c0,-241.39 -192.91,-434.32 -434.32,-434.32l-769.74 0 0 -329.08 1189.23 0 0 -609.9 -1368.01 0c-241.3,0 -433.54,192.21 -433.54,433.51zm6766.18 1103.35l0.02 -1001.16 592.9 0 0 -609.9 -592.9 0 0 -240.76c0,-240.27 -194.1,-434.33 -434.35,-434.33l-177.96 0 -0.01 2286.15 0.01 0 0 493.96c0,119.84 41.79,220.23 126.88,304.65 85.48,84.8 181.62,123.29 302.06,123.29l241.02 0c447.18,4.75 535.25,-402.95 535.25,-606.69l-592.92 0 0 -315.21zm-2191.65 -1602.58l0 607.54 -109.46 0 0 610.7 109.46 0 0 1308.34 609.9 0 0 -1308.34 595.31 0 0 -610.7 -595.31 0 0 -680.43 595.31 0 0 -610.68 -522.45 0c-381.42,0 -682.76,302.45 -682.76,683.57zm-2393.89 566.7l0 1516.84c0,240.94 193.28,431.15 433.54,431.15l1089 0c275.35,0 492.27,-216.94 492.27,-492.28l0 -1516.02c0,-243.43 -189.02,-440.67 -434.32,-440.67l-1089.03 0c-276.81,0 -491.46,226.86 -491.46,500.98zm609.91 120.81l795.01 0 0 1217.28 -795.01 0 0 -1217.28z"/>
  <path class="fil4" d="M9831.85 11292.37c-41.31,103.7 -67.01,168.52 -67.01,168.52 0,0 222.82,96.73 529.54,231 51.51,-32.48 100.48,-79.8 146.94,-138.07l-609.47 -261.45zm-250.92 -107.66l-651.87 -279.65c-39.87,98.47 -61.24,162.87 -62.95,168.07 216.09,92.82 432.09,185.89 647.92,279.3 0,0 26.21,-65.78 66.9,-167.72z"/>
  <path class="fil5" d="M7463.27 11542.76l-167.32 -70.38 -254.69 618.91c48.06,32.15 101.77,64.58 159.62,96.42l262.39 -644.95zm111.06 -272.97l259.73 -638.44c-54.45,-23.23 -108.89,-46.47 -163.34,-69.71 -1.16,-0.51 -2.33,-1 -3.51,-1.5l-261.11 638.69 2.06 0.87 166.17 70.09z"/>
  <path class="fil5" d="M7553.47 8918.01l-65.46 163.21 673.07 284.56 67.86 -164.98 -675.47 -282.79zm-915.88 -196.33l594.69 251.42 66.12 -161.87 -535.84 -224.35c0,0 -58.88,52.52 -124.97,134.8z"/>
 </g>
</svg>
