<?xml version="1.0" encoding="UTF-8"?>
<!DOCTYPE svg PUBLIC "-//W3C//DTD SVG 1.1//EN" "http://www.w3.org/Graphics/SVG/1.1/DTD/svg11.dtd">
<!-- Creator: CorelDRAW (Wersja OEM) -->
<svg xmlns="http://www.w3.org/2000/svg" xml:space="preserve" width="297mm" height="210mm" version="1.1" style="shape-rendering:geometricPrecision; text-rendering:geometricPrecision; image-rendering:optimizeQuality; fill-rule:evenodd; clip-rule:evenodd"
viewBox="0 0 29700 21000"
 xmlns:xlink="http://www.w3.org/1999/xlink"
 xmlns:xodm="http://www.corel.com/coreldraw/odm/2003">
 <defs>
  <style type="text/css">
   <![CDATA[
    .fil0 {fill:#5080B4}
    .fil1 {fill:#69AADD}
    .fil2 {fill:#898989}
    .fil3 {fill:#C5C6C6}
   ]]>
  </style>
 </defs>
 <g id="Warstwa_x0020_1">
  <metadata id="CorelCorpID_0Corel-Layer"/>
  <path class="fil0" d="M8051.85 8174.69c0,0 200.7,-16.58 790.55,231.08l1543.53 648.07c147.74,-174.78 225.53,-479.85 -81.12,-739.46 -152.69,-129.27 -540.72,-302.36 -834.07,-402.74 -435.71,-149.15 -993.88,61.89 -1418.89,263.05zm-1055.21 520.75l1651.58 691.45c300.57,125.83 836.98,221.66 1506.76,-127.96 -1203.51,-500.28 -1834.52,-765.85 -1957.58,-820.22 -123.02,-54.36 -744.73,-186.54 -1200.76,256.73z"/>
  <path class="fil1" d="M6924.91 8767.98c-58.63,64.38 -139.74,166 -189.71,281.16 -80.72,186.08 -291.84,671.12 -330,897.18 -38.14,226.07 -31.84,804.3 241.48,1244.05 31.42,-226.61 126.67,-405.61 225.49,-647.87l626.5 -1535.67 -573.76 -238.85zm62.6 2259.45c-153.71,383.26 -36.96,933.98 288.6,1182.25l1156.29 -2814.15 -677.17 -281.9 -767.72 1913.8z"/>
  <path class="fil0" d="M10040.28 11494.61c124.54,-313.22 563.16,-1413.73 625.2,-1530.5 227.9,-429.4 667.92,-846.32 1219.71,-840.31 -364.71,260.24 -501.33,818.18 -617.86,1130.1 -108.11,289.4 -322.61,1178.41 -650.39,1492.75l-576.66 -252.04zm-902.41 -394.44c49.86,-131.94 157.31,-391.41 316.16,-644.25 222.5,-354.25 743.53,-794.15 1174.25,-803.86 -145.15,118.6 -283.31,368.55 -357.36,539.07 -61.65,141.91 -377.46,932.56 -481.67,1193.76l-651.38 -284.72z"/>
  <path class="fil1" d="M9586.5 12365.2c-229.71,-8.94 -463.37,-106.65 -641.32,-181.52l-1329.5 -559.24 -262.2 634.3c305.48,184.28 770.58,363.18 1122,379.54 349.08,16.26 928.12,-116.85 1111.02,-273.08zm-159.09 -297.4c194.82,82.17 530.51,170.31 1110.96,-258.63 -844.55,-369.68 -1692.21,-732.68 -2540.11,-1094.63l-268.01 637.42 1697.16 715.84z"/>
  <path class="fil2" d="M13240.5 9521.3l809.05 0 0 1244.54 -809.05 0 0 -1244.54zm1800.81 -1363.02l0 3219.17 614.02 0 0 -2783.61c0,-240.95 -194.64,-435.56 -435.57,-435.56l-178.45 0zm-1104.73 3572.81l-1123.54 0 0 611.61 1191 0c464.8,0 586.41,-525.31 638.25,-857.14 -199.4,187.57 -495.97,245.53 -705.71,245.53zm-875.34 -353.64l1315.72 0c156.51,0 284.2,-127.7 284.2,-284.2l0 -1683.55c0,-278.88 -222.17,-500.02 -500.81,-500.02l-1033.85 0c-279.14,0 -500.03,220.9 -500.03,500.02l0 1532.2c0,241.26 193.25,435.55 434.77,435.55z"/>
  <path class="fil3" d="M16035.48 9344.41l0 628.02c0,274.12 219.21,491.28 492.87,491.28l717 0 0 302.13 -1209.87 0 0 611.61 1385.94 0c242.11,0 435.53,-193.48 435.53,-435.55l0 -655.06c0,-242.07 -193.45,-435.54 -435.53,-435.54l-771.91 0 0 -330.01 1192.57 0 0 -611.61 -1371.85 0c-241.98,0 -434.75,192.75 -434.75,434.73zm6785.17 1106.45l0.01 -1003.98 594.57 0 0 -611.61 -594.57 0 0 -241.43c0,-240.95 -194.64,-435.56 -435.56,-435.56l-178.46 0 -0.02 2292.58 0.02 0 0 495.34c0,120.18 41.9,220.85 127.23,305.5 85.72,85.04 182.14,123.65 302.91,123.65l241.69 0c448.45,4.76 536.76,-404.09 536.76,-608.4l-594.58 0 0 -316.09zm-2197.8 -1607.08l0 609.25 -109.78 0 0 612.4 109.78 0 0 1312.02 611.61 0 0 -1312.02 596.98 0 0 -612.4 -596.98 0 0 -682.35 596.98 0 0 -612.4 -523.92 0c-382.49,0 -684.67,303.3 -684.67,685.5zm-2400.62 568.29l0 1521.09c0,241.62 193.83,432.37 434.76,432.37l1092.06 0c276.13,0 493.65,-217.56 493.65,-493.67l0 -1520.27c0,-244.11 -189.55,-441.91 -435.54,-441.91l-1092.08 0c-277.59,0 -492.85,227.5 -492.85,502.39zm611.63 121.15l797.24 0 0 1220.69 -797.24 0 0 -1220.69z"/>
 </g>
</svg>
