<?xml version="1.0" encoding="UTF-8"?>
<!DOCTYPE svg PUBLIC "-//W3C//DTD SVG 1.1//EN" "http://www.w3.org/Graphics/SVG/1.1/DTD/svg11.dtd">
<!-- Creator: CorelDRAW (Wersja OEM) -->
<svg xmlns="http://www.w3.org/2000/svg" xml:space="preserve" width="67.7332mm" height="19.4732mm" version="1.1" style="shape-rendering:geometricPrecision; text-rendering:geometricPrecision; image-rendering:optimizeQuality; fill-rule:evenodd; clip-rule:evenodd"
viewBox="0 0 6773.32 1947.32"
 xmlns:xlink="http://www.w3.org/1999/xlink"
 xmlns:xodm="http://www.corel.com/coreldraw/odm/2003">
 <defs>
  <style type="text/css">
   <![CDATA[
    .fil0 {fill:#FEFEFE}
    .fil9 {fill:#C5C6C6}
    .fil8 {fill:#898989}
    .fil2 {fill:#EFF8FE}
    .fil1 {fill:#EFF8FE}
    .fil7 {fill:#69AADD}
    .fil4 {fill:#69AADD}
    .fil5 {fill:#5B9ED0}
    .fil3 {fill:#5080B4}
    .fil6 {fill:#4777A6}
    .fil10 {fill:#4777A6}
    .fil12 {fill:#5080B4;fill-rule:nonzero}
    .fil11 {fill:#5080B4;fill-rule:nonzero}
    .fil13 {fill:#999999;fill-rule:nonzero}
   ]]>
  </style>
 </defs>
 <g id="Warstwa_x0020_1">
  <metadata id="CorelCorpID_0Corel-Layer"/>
  <polygon class="fil0" points="-0.01,0 6773.32,0 6773.32,1946.13 -0.01,1946.13 "/>
  <path class="fil1" d="M2649.03 0l278.99 0 -107.54 261.71c-80.94,-61.73 -139.06,-156.47 -171.45,-261.71zm334.92 0l194.24 0 587.18 246.99c100.74,42.39 233.02,97.71 363.07,102.77 -103.55,88.44 -431.35,163.8 -628.97,154.59 -198.95,-9.26 -462.25,-110.54 -635.19,-214.87l119.67 -289.48zm624.37 0l978.99 0 80 34.97c-328.61,242.84 -518.64,192.94 -628.94,146.42l-430.05 -181.39z"/>
  <path class="fil2" d="M4885.67 371.2c0,0 109.79,-9.08 432.45,126.4l844.38 354.53c80.82,-95.61 123.36,-262.49 -44.38,-404.52 -83.53,-70.71 -295.8,-165.4 -456.26,-220.31 -238.36,-81.6 -543.69,33.85 -776.19,143.9zm1887.65 554.92l0 239.69c-57.52,122.46 -94.66,251.77 -128.67,342.8 -31.64,84.72 -79.97,263.38 -145.53,437.52l-429.46 0c96.22,-240.23 221.9,-551.14 245.76,-596.05 94.23,-177.55 254.78,-351.18 457.9,-423.96zm-864.85 1020.01l-418.91 0c30.34,-77.03 85.53,-203.46 163.15,-327.01 121.72,-193.78 406.74,-434.43 642.36,-439.74 -79.41,64.88 -154.98,201.61 -195.48,294.89 -23.97,55.16 -118.15,289.55 -191.12,471.86zm-618.18 0l-511.95 0 78.01 -185.53c144.68,61.75 289.34,123.57 433.94,185.53zm-569.16 0l-423.14 0c1.75,-4.83 3.54,-9.63 5.44,-14.38l419.98 -1046.92 370.43 154.21 -372.71 907.09zm-589.11 0l-55.88 0c-109.09,-227.6 -110.01,-494.58 -91.25,-605.79 20.87,-123.66 136.36,-388.99 180.52,-490.79 27.34,-62.99 71.71,-118.58 103.78,-153.79l313.87 130.65 -342.72 840.07c-42.78,104.86 -84.33,188.07 -108.32,279.65zm176.41 -1290.06l903.48 378.24c164.42,68.84 457.86,121.26 824.25,-69.99 -658.37,-273.67 -1003.55,-418.96 -1070.87,-448.7 -67.3,-29.74 -407.4,-102.04 -656.86,140.45z"/>
  <path class="fil3" d="M278.96 562.3c12.38,43.64 43.17,91.09 64.27,131.85l647.66 1251.98 -990.9 0 0 -1946.13 668.86 0c-52.52,31.01 -105.08,61.87 -157.74,92.45 -97.72,55.75 -159.8,64.41 -182.06,179.99 -46.27,96.55 -81.81,177.94 -50.09,289.86z"/>
  <path class="fil4" d="M1069.28 1946.13l-664.22 -1283.97c-12.95,-25.01 -50.42,-88.24 -59.12,-118.86 -8.66,-30.61 -16.53,-110.51 14.53,-175.33 7.77,30.81 24.24,53.74 40.91,86l772.4 1492.16 -104.5 0zm259.03 0l-896.36 -1728.34c-41.17,39.18 -48.32,116.6 -21.98,167.51l807.71 1560.83 110.63 0z"/>
  <path class="fil4" d="M983.46 0l-508.37 300.98 -43.14 -83.19 113.83 -64.97c2.59,-1.47 100.35,-59.2 258.9,-152.82l178.78 0zm80.26 0l-570.29 336.35 44.48 85.78c34.01,-19.12 324.16,-190.06 716.94,-422.13l-191.13 0z"/>
  <path class="fil5" d="M505.69 282.86l-30.6 18.12 -43.14 -83.19 32.02 -18 41.72 83.07zm-12.26 53.49l30.21 -17.78 43.57 86.73c-21.81,12.76 -23.18,13.39 -29.3,16.83l-44.48 -85.78z"/>
  <g id="_2123641899248">
   <g>
    <path class="fil3" d="M5892.45 0l-118.88 243.98c-13.12,26.93 -51.16,95.03 -59.97,128.02 -8.81,32.99 -16.79,119.07 14.74,188.9 7.88,-33.18 24.57,-57.9 41.51,-92.65l228.3 -468.25 -105.7 0zm150.41 0l111.03 0 -353.03 722.7c-41.79,-42.21 -49.02,-125.63 -22.29,-180.47l264.29 -542.23z"/>
    <path class="fil3" d="M6773.32 1213.21l-928.68 -580.14 -43.78 89.63 115.5 69.98c2.91,1.76 489.14,304.06 856.96,533.42l0 -112.89zm0 -172.66l0 121.84 -910.06 -567.43 45.14 -92.41c25.49,15.23 433.18,268.73 864.92,538z"/>
    <path class="fil6" d="M5875.7 652.6l-31.06 -19.53 -43.78 89.63 32.5 19.4 42.34 -89.5zm-12.44 -57.64l30.65 19.16 44.21 -93.45c-22.13,-13.73 -23.52,-14.41 -29.72,-18.12l-45.14 92.41z"/>
   </g>
   <path class="fil7" d="M5983.69 506.44c100.55,62.14 432.4,268.56 789.63,491.31l0 -997.75 -580.81 0 -238.48 488.21c6.2,3.71 7.59,4.39 29.72,18.12l-0.06 0.11z"/>
  </g>
  <path class="fil3" d="M2078.3 1723.8c54.5,38.84 166.79,118.51 313.33,222.33l-666.55 0 318.24 -247.37c7.18,5.26 8.6,6.51 34.85,25.13l0.13 -0.09z"/>
  <path class="fil3" d="M3894.2 1313.36c22.29,-13.35 68.2,-40.75 128.11,-76.45l-272.53 0 130.12 85.06c2.94,-1.81 3.51,-2.24 14.25,-8.64l0.05 0.03z"/>
  <path class="fil3" d="M5004.54 1313.36c22.28,-13.35 68.19,-40.75 128.11,-76.45l-272.54 0 130.12 85.06c2.94,-1.81 3.52,-2.24 14.25,-8.64l0.06 0.03z"/>
  <path class="fil3" d="M6114.87 1313.36c22.28,-13.35 68.19,-40.75 128.11,-76.45l-272.54 0 130.12 85.06c2.94,-1.81 3.52,-2.24 14.25,-8.64l0.06 0.03z"/>
  <g id="GLSoft_logo.cdr">
   <path class="fil3" d="M1252.64 309.21c0,0 21.55,-1.78 84.89,24.81l165.73 69.59c15.86,-18.77 24.21,-51.53 -8.71,-79.4 -16.4,-13.88 -58.06,-32.47 -89.56,-43.24 -46.78,-16.02 -106.71,6.64 -152.35,28.24zm-113.3 55.91l177.34 74.25c32.27,13.51 89.86,23.8 161.78,-13.74 -129.22,-53.72 -196.98,-82.23 -210.19,-88.07 -13.21,-5.84 -79.96,-20.03 -128.93,27.56z"/>
   <path class="fil4" d="M1139.34 365.12c0,0 -18.91,16.87 -28.07,37.98 -8.67,19.98 -31.34,72.06 -35.43,96.33 -4.1,24.28 -3.42,86.37 25.92,133.58 3.38,-24.33 13.61,-43.55 24.22,-69.56l71.06 -174.17 -57.7 -24.16zm157.89 66.11l-72.73 -30.45 -86.14 214.74c-16.5,41.15 -3.97,100.28 30.99,126.94l127.88 -311.23z"/>
   <path class="fil3" d="M1462.61 674.58c0,0 62.89,-158.59 70.66,-173.23 24.48,-46.11 71.72,-90.88 130.97,-90.23 -39.16,27.94 -53.83,87.85 -66.34,121.34 -12.52,33.49 -38.29,141.79 -78.27,166.99 -33.03,-14.45 -57.02,-24.87 -57.02,-24.87zm-96.78 -41.71c0,0 13.09,-40.08 37.37,-78.72 23.89,-38.03 79.83,-85.27 126.08,-86.31 -15.58,12.73 -30.42,39.57 -38.37,57.88 -7.95,18.31 -55.31,137.18 -55.31,137.18l-69.77 -30.03z"/>
   <path class="fil4" d="M1417.42 759.16c-24.66,-0.96 -49.75,-11.46 -68.86,-19.49l-151.94 -63.92 -27.27 66.71c32.15,21.51 87.7,44.11 128.78,46.02 37.48,1.74 99.65,-12.55 119.29,-29.32zm-17.08 -31.94c20.92,8.83 56.96,18.29 119.29,-27.77 -94.05,-41.16 -188.46,-81.56 -282.88,-121.86l-28.12 68.77 191.71 80.86z"/>
   <path class="fil8" d="M1809.76 453.8l86.87 0 0 133.63 -86.87 0 0 -133.63zm193.36 -146.35l0 345.65 65.93 0 0 -298.89c0,-25.87 -20.9,-46.76 -46.77,-46.76l-19.16 0zm-118.62 383.62l-120.64 0 0 65.67 127.89 0c49.9,0 62.96,-56.4 68.53,-92.03 -21.41,20.14 -53.26,26.36 -75.78,26.36zm-93.99 -37.97l141.28 0c16.8,0 30.51,-13.71 30.51,-30.52l0 -180.76c0,-29.95 -23.85,-53.69 -53.77,-53.69l-111.01 0c-29.97,0 -53.69,23.72 -53.69,53.69l0 164.51c0,25.91 20.75,46.77 46.68,46.77z"/>
   <path class="fil9" d="M2109.87 434.81l0 67.43c0,29.43 23.53,52.75 52.92,52.75l76.98 0 0 32.44 -129.9 0 0 65.67 148.81 0c26,0 46.76,-20.78 46.76,-46.77l0 -70.33c0,-25.99 -20.77,-46.77 -46.76,-46.77l-82.88 0 0 -35.43 128.05 0 0 -65.67 -147.3 0c-25.98,0 -46.68,20.69 -46.68,46.68zm728.54 118.8l0 -107.8 63.84 0 0 -65.67 -63.84 0 0 -25.93c0,-25.87 -20.9,-46.76 -46.77,-46.76l-19.16 0 0 246.16 0 0 0 53.18c0,12.91 4.5,23.72 13.66,32.81 9.21,9.13 19.56,13.27 32.53,13.27l25.95 0c48.15,0.51 57.63,-43.38 57.63,-65.32l-63.84 0 0 -33.94zm-235.98 -172.56l0 65.42 -11.79 0 0 65.75 11.79 0 0 140.88 65.67 0 0 -140.88 64.1 0 0 -65.75 -64.1 0 0 -73.27 64.1 0 0 -65.75 -56.26 0c-41.07,0 -73.51,32.56 -73.51,73.6zm-257.77 61.02l0 163.33c0,25.94 20.82,46.42 46.69,46.42l117.25 0c29.65,0 53.01,-23.36 53.01,-53.01l0 -163.23c0,-26.21 -20.35,-47.45 -46.77,-47.45l-117.26 0c-29.8,0 -52.92,24.43 -52.92,53.94zm65.68 13.01l85.6 0 0 131.07 -85.6 0 0 -131.07z"/>
   <path class="fil10" d="M1469.82 656.44c-4.44,11.16 -7.21,18.14 -7.21,18.14 0,0 23.99,10.42 57.02,24.87 5.54,-3.49 10.82,-8.59 15.82,-14.86l-65.63 -28.15zm-27.01 -11.6l-70.19 -30.11c-4.3,10.61 -6.6,17.54 -6.78,18.1 23.27,9.99 46.52,20.02 69.76,30.07 0,0 2.82,-7.08 7.21,-18.06z"/>
   <path class="fil5" d="M1214.79 683.4l-18.02 -7.58 -27.42 66.64c5.17,3.46 10.96,6.95 17.19,10.38l28.25 -69.44zm11.96 -29.4l27.96 -68.74c-5.86,-2.5 -11.72,-5 -17.58,-7.5 -0.13,-0.06 -0.26,-0.11 -0.38,-0.17l-28.12 68.77 0.22 0.1 17.9 7.54z"/>
   <path class="fil5" d="M1224.5 400.78l-7.05 17.57 72.47 30.64 7.31 -17.76 -72.73 -30.45zm-98.62 -21.14l64.04 27.07 7.12 -17.43 -57.7 -24.16c0,0 -6.34,5.66 -13.46,14.52z"/>
  </g>
  <path class="fil11" d="M1354.91 1024.62c0,-5.89 1.52,-11.24 4.56,-16.02 3.04,-4.81 7.11,-8.64 12.22,-11.51 5.08,-2.85 10.72,-4.29 16.94,-4.29l53.52 0 0 16.7 -53.52 0c-4.66,0 -8.66,1.47 -11.97,4.42 -3.32,2.94 -4.97,6.49 -4.97,10.62l0 49.64c0,4.13 1.65,7.69 4.97,10.62 3.31,2.95 7.31,4.42 11.97,4.42l26.48 0c4.72,0 8.74,-1.47 12.03,-4.42 3.28,-2.93 4.91,-6.49 4.91,-10.62l0 -14.8 -30.69 0 0 -16.7 47.5 0 0 31.42c0,5.83 -1.53,11.16 -4.54,15.99 -3.04,4.84 -7.11,8.67 -12.21,11.54 -5.14,2.85 -10.79,4.29 -17,4.29l-26.48 0c-6.22,0 -11.86,-1.44 -16.94,-4.29 -5.11,-2.87 -9.18,-6.7 -12.22,-11.54 -3.04,-4.83 -4.56,-10.16 -4.56,-15.99l0 -49.48zm114.62 -31.82l16.69 0 0 81.46c0,4.13 1.47,7.66 4.4,10.59 2.91,2.9 6.41,4.37 10.49,4.37l56.1 0 0 16.7 -56.1 0c-5.79,0 -11.05,-1.41 -15.86,-4.26 -4.81,-2.82 -8.64,-6.65 -11.47,-11.46 -2.84,-4.78 -4.25,-10.1 -4.25,-15.94l0 -81.46zm100.41 62.05l49.88 0 0 14.01 -49.88 0 0 -14.01zm68.97 -34.68c0,-5.05 1.24,-9.64 3.77,-13.77 2.53,-4.12 5.92,-7.43 10.19,-9.91 4.26,-2.47 8.95,-3.69 14.11,-3.69l58.55 0 0 16.7 -58.55 0c-3.09,0 -5.73,1.09 -7.95,3.26 -2.22,2.17 -3.34,4.8 -3.34,7.87l0 7.8c0,2.82 1.12,5.24 3.34,7.24 2.22,2.02 4.86,3.02 7.95,3.02l36.04 0c5.19,0 9.91,1.25 14.15,3.72 4.26,2.44 7.63,5.79 10.15,9.94 2.53,4.15 3.78,8.76 3.78,13.79l0 12.33c0,5.05 -1.25,9.64 -3.78,13.82 -2.52,4.15 -5.89,7.46 -10.15,9.94 -4.24,2.47 -8.96,3.69 -14.15,3.69l-64.05 0 0 -16.78 64.05 0c3.12,0 5.78,-1.06 7.98,-3.15 2.2,-2.09 3.31,-4.62 3.31,-7.6l0 -12.17c0,-2.96 -1.11,-5.51 -3.31,-7.63 -2.2,-2.11 -4.86,-3.17 -7.98,-3.17l-36.04 0c-5.16,0 -9.85,-1.22 -14.11,-3.64 -4.27,-2.42 -7.66,-5.65 -10.19,-9.75 -2.53,-4.08 -3.77,-8.59 -3.77,-13.52l0 -8.34zm112.88 4.45c0,-5.89 1.51,-11.24 4.59,-16.02 3.03,-4.81 7.11,-8.64 12.19,-11.51 5.1,-2.85 10.74,-4.29 16.93,-4.29l26.51 0c6.19,0 11.86,1.44 16.97,4.29 5.14,2.87 9.21,6.7 12.22,11.51 3.01,4.78 4.54,10.13 4.54,16.02l0 49.48c0,5.83 -1.53,11.16 -4.54,15.99 -3.01,4.84 -7.08,8.67 -12.22,11.54 -5.11,2.85 -10.78,4.29 -16.97,4.29l-26.51 0c-6.19,0 -11.83,-1.44 -16.93,-4.29 -5.08,-2.87 -9.16,-6.7 -12.19,-11.54 -3.08,-4.83 -4.59,-10.16 -4.59,-15.99l0 -49.48zm16.78 49.56c0,4.13 1.65,7.69 4.97,10.62 3.33,2.95 7.3,4.42 11.96,4.42l26.51 0c4.72,0 8.72,-1.47 12,-4.42 3.29,-2.93 4.95,-6.49 4.95,-10.62l0 -49.64c0,-4.13 -1.66,-7.68 -4.95,-10.62 -3.28,-2.95 -7.28,-4.42 -12,-4.42l-26.51 0c-4.66,0 -8.63,1.47 -11.96,4.42 -3.32,2.94 -4.97,6.49 -4.97,10.62l0 49.64zm99.44 -81.38l75.72 0 0 16.7 -58.94 0 0 96.42 -16.78 0 0 -113.12zm26.34 45.89l49.38 0 0 16.73 -49.38 0 0 -16.73zm62.12 -45.89l92.14 0 0 16.7 -37.65 0 0 96.42 -16.85 0 0 -96.42 -37.64 0 0 -16.7zm151.79 53.84c0,-4.29 1.08,-8.17 3.23,-11.67 2.14,-3.51 5.03,-6.3 8.58,-8.37 3.59,-2.06 7.55,-3.09 11.89,-3.09l48.39 0 0 16.78 -48.39 0c-1.9,0 -3.52,0.63 -4.89,1.87 -1.35,1.26 -2.03,2.75 -2.03,4.48l0 2.01c0,1.8 0.68,3.34 2.03,4.59 1.37,1.28 2.99,1.93 4.89,1.93l30.09 0c4.35,0 8.31,1.03 11.89,3.15 3.58,2.09 6.44,4.89 8.55,8.39 2.13,3.5 3.18,7.39 3.18,11.68l0 4.32c0,4.23 -1.05,8.11 -3.18,11.65 -2.11,3.52 -4.97,6.32 -8.55,8.41 -3.58,2.09 -7.54,3.15 -11.89,3.15l-50.04 0 0 -16.78 50.04 0c1.9,0 3.53,-0.65 4.89,-1.92 1.36,-1.26 2.03,-2.8 2.03,-4.59l0 -4.16c0,-1.84 -0.67,-3.42 -2.03,-4.7 -1.36,-1.25 -2.99,-1.9 -4.89,-1.9l-30.09 0c-4.34,0 -8.3,-1.03 -11.89,-3.15 -3.55,-2.09 -6.44,-4.89 -8.58,-8.41 -2.15,-3.54 -3.23,-7.42 -3.23,-11.66l0 -2.01zm94.9 -6.35c0,-4.62 1.65,-8.55 4.94,-11.86 3.28,-3.29 7.25,-4.92 11.84,-4.92l29.21 0c5.46,0 10.43,1.33 14.94,4.02 4.51,2.66 8.12,6.25 10.78,10.69 2.69,4.46 4.02,9.4 4.02,14.89l0 23.05c0,5.46 -1.33,10.45 -4.02,14.96 -2.66,4.51 -6.27,8.1 -10.78,10.78 -4.51,2.69 -9.48,4.02 -14.94,4.02l-19.65 0 0 -16.78 19.65 0c3.59,0 6.66,-1.31 9.18,-3.86 2.53,-2.57 3.78,-5.67 3.78,-9.28l0 -22.76c0,-3.58 -1.25,-6.65 -3.78,-9.17 -2.52,-2.53 -5.59,-3.78 -9.18,-3.78l-29.21 0 0 96.35 -16.78 0 0 -96.35zm94.45 56.07c0,-2.85 0.99,-5.29 3.01,-7.3 2,-2.01 4.45,-3.02 7.33,-3.02 2.9,0 5.37,0.99 7.35,2.97 1.99,2 2.99,4.45 2.99,7.35 0,2.94 -1,5.38 -2.99,7.37 -1.98,2 -4.45,2.98 -7.35,2.98 -2.88,0 -5.33,-1 -7.33,-3.02 -2.02,-2 -3.01,-4.45 -3.01,-7.33zm86.31 -3.26l49.56 -52.89 -49.56 0 0 -16.7 75.98 0 0 12.57 -49.8 53.14 49.8 0 0 16.7 -75.98 0 0 -12.82zm141.21 -39.86c0,-5.46 1.35,-10.43 4.01,-14.93 2.69,-4.51 6.28,-8.12 10.78,-10.78 4.51,-2.69 9.51,-4.02 14.97,-4.02l17.98 0c5.45,0 10.45,1.33 14.95,4.02 4.51,2.66 8.09,6.27 10.78,10.78 2.66,4.5 4.02,9.47 4.02,14.93l0 22.92c0,5.46 -1.36,10.45 -4.02,14.96 -2.69,4.51 -6.27,8.1 -10.78,10.78 -4.5,2.69 -9.5,4.02 -14.95,4.02l-17.98 0c-5.46,0 -10.46,-1.33 -14.97,-4.02 -4.5,-2.68 -8.09,-6.27 -10.78,-10.78 -2.66,-4.51 -4.01,-9.5 -4.01,-14.96l0 -22.92zm16.78 22.76c0,3.61 1.27,6.71 3.82,9.28 2.56,2.55 5.6,3.86 9.16,3.86l17.98 0c3.6,0 6.67,-1.31 9.17,-3.86 2.52,-2.57 3.8,-5.67 3.8,-9.28l0 -22.6c0,-3.58 -1.28,-6.67 -3.8,-9.26 -2.5,-2.57 -5.57,-3.85 -9.17,-3.85l-17.98 0c-3.56,0 -6.6,1.28 -9.16,3.85 -2.55,2.59 -3.82,5.68 -3.82,9.26l0 22.6zm78.62 20.36c0,-2.85 0.99,-5.29 3.01,-7.3 2,-2.01 4.45,-3.02 7.33,-3.02 2.9,0 5.37,0.99 7.35,2.97 1.99,2 2.99,4.45 2.99,7.35 0,2.94 -1,5.38 -2.99,7.37 -1.98,2 -4.45,2.98 -7.35,2.98 -2.88,0 -5.33,-1 -7.33,-3.02 -2.02,-2 -3.01,-4.45 -3.01,-7.33zm38.57 -43.12c0,-5.46 1.36,-10.43 4.02,-14.93 2.69,-4.51 6.28,-8.12 10.78,-10.78 4.51,-2.69 9.5,-4.02 14.96,-4.02l17.98 0c5.45,0 10.46,1.33 14.96,4.02 4.51,2.66 8.09,6.27 10.78,10.78 2.66,4.5 4.02,9.47 4.02,14.93l0 22.92c0,5.46 -1.36,10.45 -4.02,14.96 -2.69,4.51 -6.27,8.1 -10.78,10.78 -4.5,2.69 -9.51,4.02 -14.96,4.02l-17.98 0c-5.46,0 -10.45,-1.33 -14.96,-4.02 -4.5,-2.68 -8.09,-6.27 -10.78,-10.78 -2.66,-4.51 -4.02,-9.5 -4.02,-14.96l0 -22.92zm16.78 22.76c0,3.61 1.28,6.71 3.83,9.28 2.55,2.55 5.6,3.86 9.15,3.86l17.98 0c3.61,0 6.68,-1.31 9.18,-3.86 2.52,-2.57 3.8,-5.67 3.8,-9.28l0 -22.6c0,-3.58 -1.28,-6.67 -3.8,-9.26 -2.5,-2.57 -5.57,-3.85 -9.18,-3.85l-17.98 0c-3.55,0 -6.6,1.28 -9.15,3.85 -2.55,2.59 -3.83,5.68 -3.83,9.26l0 22.6zm78.62 20.36c0,-2.85 1,-5.29 3.01,-7.3 2.01,-2.01 4.46,-3.02 7.33,-3.02 2.91,0 5.38,0.99 7.36,2.97 1.98,2 2.99,4.45 2.99,7.35 0,2.94 -1.01,5.38 -2.99,7.37 -1.98,2 -4.45,2.98 -7.36,2.98 -2.87,0 -5.32,-1 -7.33,-3.02 -2.01,-2 -3.01,-4.45 -3.01,-7.33zm-1386.72 95.31l14.8 85.3 20.36 -37.1 15.83 0 20.37 37.1 14.8 -85.3 16.78 0 -19.64 113.13 -15.12 0 -25.14 -45.52 -25.06 45.52 -15.18 0 -19.67 -113.13 16.87 0zm118.36 8.29c0,-2.88 1,-5.33 3.04,-7.33 2.01,-2.02 4.45,-3.02 7.3,-3.02 2.88,0 5.3,1 7.34,3.02 2,2 3.01,4.45 3.01,7.33 0,2.85 -1.01,5.29 -3.01,7.3 -2.04,2.01 -4.46,3.04 -7.34,3.04 -2.85,0 -5.29,-1.03 -7.3,-3.04 -2.04,-2.01 -3.04,-4.45 -3.04,-7.3zm1.93 22.43l16.86 0 0 82.41 -16.86 0 0 -82.41zm37.36 29.73c0,-5.46 1.36,-10.43 4.02,-14.93 2.69,-4.51 6.28,-8.13 10.78,-10.78 4.51,-2.7 9.5,-4.02 14.96,-4.02l19.66 0 0 16.78 -19.66 0c-3.55,0 -6.6,1.27 -9.15,3.85 -2.55,2.58 -3.83,5.68 -3.83,9.26l0 22.75c0,3.56 1.28,6.61 3.83,9.16 2.55,2.55 5.6,3.83 9.15,3.83l29.2 0 0 -96.35 16.78 0 0 96.35c0,4.61 -1.64,8.55 -4.92,11.83 -3.29,3.29 -7.25,4.95 -11.86,4.95l-29.2 0c-5.46,0 -10.45,-1.33 -14.96,-4.02 -4.5,-2.69 -8.09,-6.25 -10.78,-10.73 -2.66,-4.51 -4.02,-9.44 -4.02,-14.85l0 -23.08zm97.08 -13.04c0,-4.61 1.66,-8.55 4.97,-11.81 3.31,-3.26 7.3,-4.88 11.98,-4.88l29.02 0c5.46,0 10.46,1.32 14.96,4.02 4.51,2.65 8.09,6.27 10.79,10.78 2.65,4.5 4.02,9.47 4.02,14.93l0 52.68 -16.82 0 0 -52.43c0,-3.7 -1.25,-6.88 -3.77,-9.45 -2.5,-2.61 -5.57,-3.92 -9.18,-3.92l-29.19 0 0 65.8 -16.78 0 0 -65.72zm96.23 12.9c0,-5.48 1.36,-10.43 4.02,-14.88 2.69,-4.45 6.28,-8.04 10.78,-10.69 4.51,-2.7 9.5,-4.02 14.97,-4.02l45.97 0 0 82.41 -16.78 0 0 -65.63 -29.19 0c-3.56,0 -6.61,1.24 -9.16,3.77 -2.55,2.53 -3.83,5.6 -3.83,9.18l0 22.76c0,3.6 1.28,6.7 3.83,9.28 2.55,2.55 5.6,3.86 9.16,3.86l19.65 0 0 16.78 -19.65 0c-5.47,0 -10.46,-1.33 -14.97,-4.02 -4.5,-2.69 -8.09,-6.27 -10.78,-10.78 -2.66,-4.51 -4.02,-9.5 -4.02,-14.97l0 -23.05zm216.43 -28.48c0,-5.89 1.52,-11.24 4.55,-16.02 3.05,-4.81 7.12,-8.64 12.23,-11.52 5.08,-2.84 10.72,-4.29 16.94,-4.29l53.52 0 0 16.7 -53.52 0c-4.67,0 -8.66,1.47 -11.97,4.43 -3.32,2.93 -4.97,6.49 -4.97,10.62l0 49.63c0,4.13 1.65,7.69 4.97,10.62 3.31,2.96 7.3,4.43 11.97,4.43l26.48 0c4.72,0 8.74,-1.47 12.03,-4.43 3.28,-2.93 4.91,-6.49 4.91,-10.62l0 -14.8 -30.69 0 0 -16.7 47.49 0 0 31.42c0,5.84 -1.52,11.16 -4.53,16 -3.04,4.83 -7.11,8.66 -12.21,11.54 -5.14,2.84 -10.79,4.29 -17,4.29l-26.48 0c-6.22,0 -11.86,-1.45 -16.94,-4.29 -5.11,-2.88 -9.18,-6.71 -12.23,-11.54 -3.03,-4.84 -4.55,-10.16 -4.55,-16l0 -49.47zm154.4 -44.4l14.55 7.01 -15.75 26.55 -9.07 -4.21 10.27 -29.35zm-39.95 73.02c0,-5.46 1.36,-10.43 4.02,-14.93 2.69,-4.51 6.28,-8.13 10.78,-10.78 4.51,-2.7 9.5,-4.02 14.96,-4.02l17.98 0c5.45,0 10.45,1.32 14.96,4.02 4.51,2.65 8.09,6.27 10.78,10.78 2.66,4.5 4.01,9.47 4.01,14.93l0 22.91c0,5.47 -1.35,10.46 -4.01,14.97 -2.69,4.51 -6.27,8.09 -10.78,10.78 -4.51,2.69 -9.51,4.02 -14.96,4.02l-17.98 0c-5.46,0 -10.45,-1.33 -14.96,-4.02 -4.5,-2.69 -8.09,-6.27 -10.78,-10.78 -2.66,-4.51 -4.02,-9.5 -4.02,-14.97l0 -22.91zm16.78 22.76c0,3.6 1.28,6.7 3.83,9.28 2.55,2.55 5.59,3.86 9.15,3.86l17.98 0c3.61,0 6.67,-1.31 9.18,-3.86 2.52,-2.58 3.79,-5.68 3.79,-9.28l0 -22.6c0,-3.58 -1.27,-6.68 -3.79,-9.26 -2.51,-2.58 -5.57,-3.85 -9.18,-3.85l-17.98 0c-3.56,0 -6.6,1.27 -9.15,3.85 -2.55,2.58 -3.83,5.68 -3.83,9.26l0 22.6zm81.25 -29.44c0,-4.23 1.06,-8.1 3.2,-11.6 2.15,-3.5 5.03,-6.29 8.61,-8.36 3.56,-2.06 7.52,-3.09 11.9,-3.09l18.35 0 0 16.69 -18.35 0c-1.94,0 -3.56,0.66 -4.92,1.96 -1.33,1.31 -2.01,2.88 -2.01,4.72l0 59.04 -16.78 0 0 -59.36zm57.02 6.54c0,-5.48 1.36,-10.43 4.02,-14.88 2.69,-4.45 6.28,-8.04 10.78,-10.69 4.51,-2.7 9.5,-4.02 14.96,-4.02l45.98 0 0 82.41 -16.78 0 0 -65.63 -29.2 0c-3.55,0 -6.6,1.24 -9.15,3.77 -2.55,2.53 -3.83,5.6 -3.83,9.18l0 22.76c0,3.6 1.28,6.7 3.83,9.28 2.55,2.55 5.6,3.86 9.15,3.86l19.66 0 0 16.78 -19.66 0c-5.46,0 -10.45,-1.33 -14.96,-4.02 -4.5,-2.69 -8.09,-6.27 -10.78,-10.78 -2.66,-4.51 -4.02,-9.5 -4.02,-14.97l0 -23.05zm212.43 -60.31l36.36 0 0 113.13 -16.69 0 0 -96.43 -19.67 0 0 -16.7zm59.28 31.83c0,-5.89 1.43,-11.24 4.32,-16.02 2.9,-4.81 6.76,-8.64 11.62,-11.52 4.86,-2.84 10.21,-4.29 16.1,-4.29l21.97 0c6.19,0 11.86,1.45 16.97,4.29 5.14,2.88 9.2,6.71 12.22,11.52 3.01,4.78 4.53,10.13 4.53,16.02l0 49.63c0,5.84 -1.52,11.16 -4.53,15.94 -3.02,4.81 -7.06,8.64 -12.14,11.46 -5.05,2.86 -10.69,4.27 -16.89,4.27l-20.44 0c-6.23,0 -11.87,-1.41 -16.95,-4.27 -5.1,-2.82 -9.18,-6.65 -12.22,-11.46 -3.04,-4.78 -4.56,-10.1 -4.56,-15.94l0 -49.63zm16.78 49.63c0,4.08 1.66,7.58 4.97,10.51 3.31,2.91 7.31,4.38 11.98,4.38l20.44 0c4.67,0 8.64,-1.47 11.92,-4.38 3.29,-2.93 4.94,-6.43 4.94,-10.51l0 -49.63c0,-4.19 -1.65,-7.77 -4.97,-10.7 -3.31,-2.96 -7.33,-4.43 -12.05,-4.43l-21.97 0c-4.18,0 -7.76,1.47 -10.78,4.43 -2.99,2.93 -4.48,6.51 -4.48,10.7l0 49.63zm92.3 -81.46l16.78 0 0 38.83c0,3.07 1.06,5.68 3.2,7.83 2.15,2.14 4.78,3.22 7.85,3.22l39 0 0 -49.88 16.7 0 0 113.13 -16.7 0 0 -46.55 -39 0c-5.07,0 -9.75,-1.24 -13.96,-3.74 -4.21,-2.47 -7.57,-5.81 -10.1,-9.97 -2.53,-4.18 -3.77,-8.8 -3.77,-13.88l0 -38.99zm108.02 0l16.69 0 0 81.46c0,4.13 1.47,7.67 4.4,10.6 2.91,2.9 6.41,4.37 10.49,4.37l56.1 0 0 16.7 -56.1 0c-5.79,0 -11.05,-1.41 -15.86,-4.27 -4.81,-2.82 -8.64,-6.65 -11.47,-11.46 -2.84,-4.78 -4.25,-10.1 -4.25,-15.94l0 -81.46zm-1338.98 272.22c0,-4.13 1.14,-8 3.42,-11.62 2.28,-3.58 5.35,-6.46 9.23,-8.58 -7,-3.97 -10.51,-10.08 -10.51,-18.3l0 -7.01c0,-5.13 1.26,-9.8 3.78,-13.98 2.52,-4.21 5.89,-7.55 10.1,-10.08 4.23,-2.52 8.9,-3.77 14.04,-3.77l25.93 0c5.16,0 9.83,1.25 14.01,3.77 4.18,2.53 7.55,5.87 10.07,10.08 2.5,4.18 3.78,8.85 3.78,13.98l0 7.01c0,8.33 -3.48,14.41 -10.43,18.3 3.94,2.12 7.01,4.97 9.24,8.55 2.22,3.59 3.33,7.47 3.33,11.65l0 10.68c0,5.34 -1.24,10.23 -3.74,14.63 -2.5,4.4 -5.84,7.9 -10.02,10.53 -4.18,2.64 -8.86,3.94 -14.02,3.94l-30.38 0c-5.08,0 -9.75,-1.3 -13.96,-3.94 -4.2,-2.63 -7.57,-6.13 -10.09,-10.53 -2.53,-4.4 -3.78,-9.29 -3.78,-14.63l0 -10.68zm18.92 -38.5c0,3.12 1.18,5.7 3.48,7.71 2.31,2.03 5.24,3.04 8.77,3.04l23.71 0c3.61,0 6.57,-1.01 8.85,-3.04 2.28,-2.01 3.42,-4.59 3.42,-7.71l0 -7.01c0,-3.07 -1.19,-5.68 -3.59,-7.82 -2.38,-2.14 -5.29,-3.23 -8.68,-3.23l-24.82 0c-3.07,0 -5.71,1.09 -7.88,3.23 -2.17,2.14 -3.26,4.75 -3.26,7.82l0 7.01zm-2.14 49.34c0,3.33 1.22,6.19 3.67,8.58 2.44,2.39 5.35,3.58 8.74,3.58l28.08 0c3.28,0 6.1,-1.19 8.47,-3.56 2.36,-2.33 3.55,-5.18 3.55,-8.55l0 -10.89c0,-3.07 -1.05,-5.67 -3.17,-7.81 -2.14,-2.18 -4.67,-3.24 -7.66,-3.24l-30.63 0c-3.07,0 -5.67,1.2 -7.82,3.58 -2.14,2.4 -3.23,5.27 -3.23,8.67l0 9.64zm87.93 12.16l59.25 0c3.06,0 5.7,-1.08 7.84,-3.23 2.15,-2.14 3.21,-4.7 3.21,-7.68l0 -10.65c0,-3.44 -1.44,-6.38 -4.37,-8.83 -2.91,-2.44 -6.41,-3.66 -10.49,-3.66l-25.79 0 0 -16.7 25.79 0c3.48,0 6.47,-1.22 8.94,-3.67 2.47,-2.44 3.69,-5.34 3.69,-8.74l0 -5.35c0,-3.07 -1.06,-5.7 -3.2,-7.87 -2.14,-2.17 -4.78,-3.26 -7.85,-3.26l-57.02 0 0 -16.7 57.02 0c5.16,0 9.83,1.25 14.04,3.75 4.24,2.46 7.57,5.83 10.07,10.04 2.5,4.24 3.75,8.91 3.75,14.04l0 5.65c0,8.39 -3.2,14.91 -9.56,19.58 4.07,2.44 7.06,5.4 8.91,8.87 1.87,3.48 2.8,7.8 2.8,13.01l0 10.65c0,5.1 -1.25,9.72 -3.75,13.9 -2.5,4.15 -5.84,7.47 -10.08,9.94 -4.2,2.47 -8.85,3.69 -13.95,3.69l-59.25 0 0 -16.78zm106.11 -34.29l49.88 0 0 14.01 -49.88 0 0 -14.01zm68.98 34.29l59.25 0c3.06,0 5.69,-1.08 7.84,-3.23 2.15,-2.14 3.2,-4.7 3.2,-7.68l0 -10.65c0,-3.44 -1.43,-6.38 -4.36,-8.83 -2.91,-2.44 -6.42,-3.66 -10.49,-3.66l-25.79 0 0 -16.7 25.79 0c3.48,0 6.47,-1.22 8.94,-3.67 2.47,-2.44 3.69,-5.34 3.69,-8.74l0 -5.35c0,-3.07 -1.06,-5.7 -3.21,-7.87 -2.14,-2.17 -4.77,-3.26 -7.84,-3.26l-57.02 0 0 -16.7 57.02 0c5.16,0 9.83,1.25 14.04,3.75 4.24,2.46 7.57,5.83 10.07,10.04 2.5,4.24 3.75,8.91 3.75,14.04l0 5.65c0,8.39 -3.2,14.91 -9.56,19.58 4.07,2.44 7.06,5.4 8.91,8.87 1.87,3.48 2.8,7.8 2.8,13.01l0 10.65c0,5.1 -1.26,9.72 -3.75,13.9 -2.5,4.15 -5.84,7.47 -10.08,9.94 -4.21,2.47 -8.85,3.69 -13.95,3.69l-59.25 0 0 -16.78zm106.11 -21.4c0,-6.16 1.41,-10.7 4.29,-13.6 2.85,-2.93 7.98,-5.08 15.35,-6.46l42.16 -8.09c2.61,-0.49 4.76,-1.83 6.44,-4.02 1.71,-2.2 2.55,-4.76 2.55,-7.61l0 -7.33c0,-3.07 -1.08,-5.7 -3.23,-7.87 -2.14,-2.17 -4.75,-3.26 -7.82,-3.26l-54.09 0 0 -16.7 54.09 0c5.13,0 9.8,1.22 13.98,3.69 4.21,2.48 7.55,5.79 10.08,9.91 2.53,4.13 3.77,8.72 3.77,13.77l0 8.12c0,4.45 -0.84,8.58 -2.55,12.41 -1.68,3.8 -4.02,7 -6.95,9.58 -2.94,2.55 -6.3,4.21 -10.08,4.97l-47.32 8.99c-1.53,0.32 -2.59,0.7 -3.13,1.14 -0.57,0.46 -0.84,1.22 -0.84,2.28l0 21.56 70.79 0 0 16.7 -87.49 0 0 -38.18zm106.69 -43.12c0,-5.89 1.43,-11.24 4.32,-16.02 2.9,-4.81 6.76,-8.64 11.62,-11.51 4.86,-2.85 10.21,-4.29 16.1,-4.29l21.97 0c6.19,0 11.86,1.44 16.97,4.29 5.13,2.87 9.2,6.7 12.22,11.51 3.01,4.78 4.53,10.13 4.53,16.02l0 49.64c0,5.84 -1.52,11.16 -4.53,15.94 -3.02,4.81 -7.06,8.64 -12.14,11.46 -5.05,2.85 -10.7,4.26 -16.89,4.26l-20.45 0c-6.22,0 -11.86,-1.41 -16.94,-4.26 -5.11,-2.82 -9.18,-6.65 -12.22,-11.46 -3.04,-4.78 -4.56,-10.1 -4.56,-15.94l0 -49.64zm16.78 49.64c0,4.07 1.65,7.57 4.97,10.51 3.31,2.91 7.31,4.37 11.97,4.37l20.45 0c4.67,0 8.64,-1.46 11.92,-4.37 3.29,-2.94 4.94,-6.44 4.94,-10.51l0 -49.64c0,-4.18 -1.65,-7.76 -4.97,-10.7 -3.31,-2.95 -7.33,-4.42 -12.05,-4.42l-21.97 0c-4.18,0 -7.76,1.47 -10.78,4.42 -2.99,2.94 -4.48,6.52 -4.48,10.7l0 49.64zm137.81 -54.09c0,-5.05 1.24,-9.64 3.77,-13.77 2.53,-4.12 5.92,-7.43 10.19,-9.91 4.26,-2.47 8.95,-3.69 14.11,-3.69l58.55 0 0 16.7 -58.55 0c-3.09,0 -5.73,1.09 -7.95,3.26 -2.22,2.17 -3.34,4.8 -3.34,7.87l0 7.8c0,2.82 1.12,5.24 3.34,7.24 2.22,2.02 4.86,3.02 7.95,3.02l36.04 0c5.19,0 9.91,1.25 14.15,3.72 4.26,2.44 7.63,5.79 10.15,9.94 2.53,4.15 3.78,8.77 3.78,13.79l0 12.33c0,5.05 -1.25,9.64 -3.78,13.82 -2.52,4.15 -5.89,7.47 -10.15,9.94 -4.24,2.47 -8.96,3.69 -14.15,3.69l-64.05 0 0 -16.78 64.05 0c3.12,0 5.78,-1.06 7.98,-3.15 2.2,-2.09 3.31,-4.62 3.31,-7.6l0 -12.17c0,-2.96 -1.11,-5.51 -3.31,-7.63 -2.2,-2.11 -4.86,-3.17 -7.98,-3.17l-36.04 0c-5.16,0 -9.85,-1.22 -14.11,-3.64 -4.27,-2.42 -7.66,-5.65 -10.19,-9.75 -2.53,-4.07 -3.77,-8.58 -3.77,-13.52l0 -8.34zm111.3 3.34l16.78 0 0 52.44c0,3.69 1.28,6.84 3.8,9.44 2.56,2.61 5.59,3.91 9.15,3.91l29.19 0 0 -65.79 16.81 0 0 65.71c0,4.62 -1.65,8.55 -4.94,11.81 -3.28,3.26 -7.31,4.89 -12,4.89l-29.06 0c-5.45,0 -10.42,-1.33 -14.96,-4.02 -4.51,-2.68 -8.09,-6.27 -10.75,-10.78 -2.69,-4.51 -4.02,-9.5 -4.02,-14.96l0 -52.65zm94.82 -30.71l16.78 0 0 113.12 -16.78 0 0 -113.12zm64.25 127.21c0,-3.77 1.09,-8.47 3.2,-14.09l-8.53 0c-4.23,0 -8.11,-1.06 -11.62,-3.14 -3.47,-2.1 -6.27,-4.9 -8.33,-8.42 -2.07,-3.54 -3.1,-7.42 -3.1,-11.65l0 -42.17c0,-4.73 1.72,-8.75 5.16,-12.06 3.45,-3.31 7.58,-4.97 12.41,-4.97l34.38 0c4.39,0 8.39,1.06 11.97,3.21 3.56,2.17 6.44,5.04 8.58,8.68 2.15,3.64 3.24,7.66 3.24,12.06l0 2.31c0,4.35 -1.09,8.31 -3.24,11.89 -2.14,3.56 -5.02,6.44 -8.58,8.58 -3.58,2.15 -7.58,3.23 -11.97,3.23l-25.63 0 0 -16.72 25.79 0c1.9,0 3.53,-0.68 4.89,-2.07 1.36,-1.38 2.01,-3.04 2.01,-4.99l0 -2.23c0,-2.04 -0.65,-3.72 -2.01,-5.11 -1.36,-1.38 -2.99,-2.06 -4.89,-2.06l-35.33 0 0 42.34c0,1.79 0.6,3.33 1.83,4.59 1.22,1.27 2.71,1.92 4.44,1.92l46.87 0 0 16.78 -26.58 0c-1.22,3.34 -2.01,5.65 -2.39,6.93 -0.35,1.28 -0.54,2.31 -0.54,3.09 0,1.66 1.09,2.47 3.26,2.47 0.67,0 1.51,-0.05 2.46,-0.16 0.96,-0.11 3.05,-0.43 6.28,-0.95l0 11.78c-3.5,0.52 -6.03,0.87 -7.6,1.03 -1.55,0.15 -2.99,0.22 -4.32,0.22 -8.07,0 -12.11,-3.44 -12.11,-10.32zm64.84 -66.77c0,-5.46 1.39,-10.43 4.16,-14.93 2.74,-4.51 6.43,-8.12 11.05,-10.78 4.62,-2.69 9.72,-4.02 15.34,-4.02l46.38 0 0 16.78 -46.38 0c-3.75,0 -7.01,1.28 -9.69,3.86 -2.71,2.58 -4.08,5.7 -4.08,9.34l0 22.38c0,3.63 1.37,6.78 4.02,9.36 2.69,2.6 5.95,3.91 9.75,3.91l46.38 0 0 16.78 -46.38 0c-5.62,0 -10.72,-1.35 -15.34,-4.04 -4.62,-2.72 -8.31,-6.33 -11.05,-10.87 -2.77,-4.53 -4.16,-9.52 -4.16,-15.01l0 -22.76zm94.44 39.87l49.56 -52.9 -49.56 0 0 -16.7 75.98 0 0 12.57 -49.8 53.14 49.8 0 0 16.7 -75.98 0 0 -12.81zm107.32 -69.6l21.4 57.1 21.88 -57.1 18.52 0 -43.75 113.45 -18.38 0 12.82 -33.76 -30.3 -79.69 17.81 0zm72.96 16.7c0,-4.62 1.66,-8.56 4.97,-11.81 3.32,-3.26 7.3,-4.89 11.98,-4.89l29.03 0c5.45,0 10.45,1.33 14.95,4.02 4.51,2.66 8.1,6.27 10.79,10.78 2.66,4.5 4.02,9.47 4.02,14.93l0 52.68 -16.81 0 0 -52.43c0,-3.69 -1.25,-6.87 -3.78,-9.45 -2.49,-2.61 -5.57,-3.91 -9.17,-3.91l-29.2 0 0 65.79 -16.78 0 0 -65.71zm94.01 13.03c0,-5.46 1.35,-10.43 4.02,-14.93 2.68,-4.51 6.27,-8.12 10.78,-10.78 4.51,-2.69 9.5,-4.02 14.96,-4.02l17.98 0c5.45,0 10.45,1.33 14.95,4.02 4.51,2.66 8.1,6.27 10.78,10.78 2.67,4.5 4.02,9.47 4.02,14.93l0 22.92c0,5.46 -1.35,10.45 -4.02,14.96 -2.68,4.51 -6.27,8.1 -10.78,10.78 -4.5,2.69 -9.5,4.02 -14.95,4.02l-17.98 0c-5.46,0 -10.45,-1.33 -14.96,-4.02 -4.51,-2.68 -8.1,-6.27 -10.78,-10.78 -2.67,-4.51 -4.02,-9.5 -4.02,-14.96l0 -22.92zm16.78 22.76c0,3.61 1.27,6.71 3.83,9.28 2.55,2.55 5.59,3.86 9.15,3.86l17.98 0c3.6,0 6.67,-1.31 9.18,-3.86 2.52,-2.57 3.79,-5.67 3.79,-9.28l0 -22.6c0,-3.58 -1.27,-6.67 -3.79,-9.25 -2.51,-2.58 -5.58,-3.86 -9.18,-3.86l-17.98 0c-3.56,0 -6.6,1.28 -9.15,3.86 -2.56,2.58 -3.83,5.67 -3.83,9.25l0 22.6z"/>
  <path class="fil12" d="M3320.6 1423.51l12.54 0 0 34.21 6.24 0 33.5 -34.21 17.3 0 -40.88 41.77 43.43 42.71 -17.51 0 -38.39 -37.72 -3.69 0 0 37.72 -12.54 0 0 -84.48zm82.82 0l44.67 0c3.85,0 7.34,0.93 10.49,2.82 3.15,1.88 5.67,4.38 7.54,7.52 1.88,3.12 2.84,6.61 2.84,10.44l0 8.44c0,3.86 -0.94,7.33 -2.79,10.4 -1.82,3.08 -4.34,5.56 -7.49,7.37 -3.17,1.82 -6.72,2.73 -10.66,2.73l25.21 34.76 -15.27 0 -25.2 -34.76 -9.68 0 0 -12.47 25.01 0c2.35,0 4.32,-0.81 5.94,-2.42 1.62,-1.6 2.43,-3.52 2.43,-5.77l0 -8.28c0,-2.28 -0.81,-4.25 -2.43,-5.87 -1.62,-1.63 -3.59,-2.44 -5.94,-2.44l-32.14 0 0 72.01 -12.53 0 0 -84.48zm80.5 20.44c0,-3.77 0.93,-7.2 2.82,-10.28 1.88,-3.09 4.42,-5.56 7.6,-7.4 3.18,-1.85 6.69,-2.76 10.55,-2.76l43.71 0 0 12.47 -43.71 0c-2.32,0 -4.29,0.81 -5.94,2.44 -1.67,1.62 -2.5,3.59 -2.5,5.87l0 5.83c0,2.1 0.83,3.91 2.5,5.41 1.65,1.5 3.62,2.25 5.94,2.25l26.91 0c3.87,0 7.39,0.93 10.56,2.78 3.18,1.82 5.69,4.32 7.59,7.42 1.88,3.1 2.8,6.55 2.8,10.3l0 9.21c0,3.77 -0.92,7.2 -2.8,10.32 -1.9,3.1 -4.41,5.57 -7.59,7.42 -3.17,1.84 -6.69,2.76 -10.56,2.76l-47.84 0 0 -12.53 47.84 0c2.32,0 4.32,-0.8 5.95,-2.36 1.64,-1.56 2.48,-3.45 2.48,-5.68l0 -9.08c0,-2.21 -0.84,-4.12 -2.48,-5.7 -1.63,-1.57 -3.63,-2.37 -5.95,-2.37l-26.91 0c-3.86,0 -7.37,-0.92 -10.55,-2.72 -3.18,-1.8 -5.72,-4.22 -7.6,-7.28 -1.89,-3.03 -2.82,-6.4 -2.82,-10.09l0 -6.23zm83.11 11.58c0,-2.13 0.75,-3.96 2.25,-5.45 1.51,-1.53 3.33,-2.28 5.46,-2.28 2.19,0 4.01,0.75 5.49,2.23 1.5,1.49 2.23,3.33 2.23,5.5 0,2.17 -0.73,4.01 -2.23,5.5 -1.48,1.48 -3.3,2.23 -5.49,2.23 -2.17,0 -4,-0.75 -5.5,-2.23 -1.48,-1.49 -2.21,-3.33 -2.21,-5.5zm0 45.32c0,-2.13 0.75,-3.96 2.25,-5.46 1.51,-1.5 3.33,-2.25 5.46,-2.25 2.19,0 4.01,0.73 5.49,2.22 1.5,1.5 2.23,3.32 2.23,5.49 0,2.18 -0.73,4.02 -2.23,5.5 -1.48,1.49 -3.3,2.22 -5.49,2.22 -2.13,0 -3.95,-0.75 -5.46,-2.25 -1.5,-1.5 -2.25,-3.32 -2.25,-5.47zm894.35 -77.34l16.28 0 36.77 66.35 0 -66.35 12.54 0 0 84.48 -16.28 0 -36.77 -65.48 0 65.48 -12.54 0 0 -84.48zm82.22 0l12.54 0 0 84.48 -12.54 0 0 -84.48zm29.16 0l44.68 0c3.85,0 7.34,0.93 10.48,2.82 3.16,1.88 5.68,4.38 7.55,7.52 1.88,3.12 2.83,6.61 2.83,10.44l0 8.44c0,3.77 -0.95,7.2 -2.83,10.32 -1.87,3.1 -4.39,5.58 -7.55,7.42 -3.14,1.85 -6.63,2.76 -10.48,2.76l-25.01 0 0 -12.47 25.01 0c2.35,0 4.32,-0.79 5.94,-2.37 1.62,-1.58 2.43,-3.53 2.43,-5.82l0 -8.28c0,-2.28 -0.81,-4.25 -2.43,-5.87 -1.62,-1.63 -3.59,-2.44 -5.94,-2.44l-32.14 0 0 72.01 -12.54 0 0 -84.48zm78.91 32.02c0,-2.13 0.75,-3.96 2.25,-5.45 1.5,-1.53 3.32,-2.28 5.45,-2.28 2.19,0 4.01,0.75 5.49,2.23 1.5,1.49 2.24,3.33 2.24,5.5 0,2.17 -0.74,4.01 -2.24,5.5 -1.48,1.48 -3.3,2.23 -5.49,2.23 -2.17,0 -4,-0.75 -5.5,-2.23 -1.47,-1.49 -2.2,-3.33 -2.2,-5.5zm0 45.32c0,-2.13 0.75,-3.96 2.25,-5.46 1.5,-1.5 3.32,-2.25 5.45,-2.25 2.19,0 4.01,0.73 5.49,2.22 1.5,1.5 2.24,3.32 2.24,5.49 0,2.18 -0.74,4.02 -2.24,5.5 -1.48,1.49 -3.3,2.22 -5.49,2.22 -2.13,0 -3.95,-0.75 -5.45,-2.25 -1.5,-1.5 -2.25,-3.32 -2.25,-5.47zm853.69 -77.34l44.67 0c3.85,0 7.34,0.93 10.49,2.82 3.15,1.88 5.67,4.38 7.54,7.52 1.88,3.12 2.84,6.61 2.84,10.44l0 8.44c0,3.86 -0.94,7.33 -2.79,10.4 -1.82,3.08 -4.33,5.56 -7.49,7.37 -3.17,1.82 -6.72,2.73 -10.66,2.73l25.21 34.76 -15.27 0 -25.2 -34.76 -9.68 0 0 -12.47 25.01 0c2.35,0 4.32,-0.81 5.94,-2.42 1.62,-1.6 2.43,-3.52 2.43,-5.77l0 -8.28c0,-2.28 -0.81,-4.25 -2.43,-5.87 -1.62,-1.63 -3.59,-2.44 -5.94,-2.44l-32.14 0 0 72.01 -12.53 0 0 -84.48zm81.67 0l65.54 0 0 12.47 -53 0 0 59.48 53 0 0 12.53 -65.54 0 0 -84.48zm19.67 34.27l45.87 0 0 12.49 -45.87 0 0 -12.49zm60.12 -10.5c0,-4.4 1.14,-8.39 3.41,-11.96 2.27,-3.59 5.31,-6.46 9.12,-8.61 3.79,-2.12 8.01,-3.2 12.66,-3.2l39.96 0 0 12.47 -39.96 0c-3.5,0 -6.47,1.09 -8.95,3.31 -2.47,2.19 -3.71,4.84 -3.71,7.92l0 37.07c0,3.09 1.24,5.74 3.71,7.93 2.48,2.21 5.45,3.3 8.95,3.3l19.77 0c3.52,0 6.52,-1.09 8.98,-3.3 2.45,-2.19 3.67,-4.84 3.67,-7.93l0 -11.05 -22.91 0 0 -12.47 35.46 0 0 23.46c0,4.36 -1.14,8.34 -3.39,11.94 -2.27,3.62 -5.31,6.47 -9.12,8.62 -3.83,2.14 -8.05,3.21 -12.69,3.21l-19.77 0c-4.65,0 -8.87,-1.07 -12.66,-3.21 -3.81,-2.15 -6.85,-5 -9.12,-8.62 -2.27,-3.6 -3.41,-7.58 -3.41,-11.94l0 -36.94zm85.59 0c0,-4.4 1.13,-8.39 3.43,-11.96 2.27,-3.59 5.31,-6.46 9.11,-8.61 3.8,-2.12 8.02,-3.2 12.64,-3.2l19.79 0c4.62,0 8.87,1.08 12.68,3.2 3.83,2.15 6.87,5.02 9.12,8.61 2.25,3.57 3.39,7.56 3.39,11.96l0 36.94c0,4.36 -1.14,8.34 -3.39,11.94 -2.25,3.62 -5.29,6.47 -9.12,8.62 -3.81,2.14 -8.06,3.21 -12.68,3.21l-19.79 0c-4.62,0 -8.84,-1.07 -12.64,-3.21 -3.8,-2.15 -6.84,-5 -9.11,-8.62 -2.3,-3.6 -3.43,-7.58 -3.43,-11.94l0 -36.94zm12.54 37c0,3.09 1.23,5.74 3.7,7.93 2.49,2.21 5.46,3.3 8.94,3.3l19.79 0c3.53,0 6.52,-1.09 8.97,-3.3 2.45,-2.19 3.69,-4.84 3.69,-7.93l0 -37.07c0,-3.08 -1.24,-5.73 -3.69,-7.92 -2.45,-2.22 -5.44,-3.31 -8.97,-3.31l-19.79 0c-3.48,0 -6.45,1.09 -8.94,3.31 -2.47,2.19 -3.7,4.84 -3.7,7.92l0 37.07zm74.24 -60.77l16.28 0 36.77 66.35 0 -66.35 12.54 0 0 84.48 -16.28 0 -36.77 -65.48 0 65.48 -12.54 0 0 -84.48zm81.05 32.02c0,-2.13 0.75,-3.96 2.25,-5.45 1.51,-1.53 3.33,-2.28 5.46,-2.28 2.19,0 4.01,0.75 5.49,2.23 1.5,1.49 2.23,3.33 2.23,5.5 0,2.17 -0.73,4.01 -2.23,5.5 -1.48,1.48 -3.3,2.23 -5.49,2.23 -2.17,0 -4,-0.75 -5.5,-2.23 -1.47,-1.49 -2.21,-3.33 -2.21,-5.5zm0 45.32c0,-2.13 0.75,-3.96 2.25,-5.46 1.51,-1.5 3.33,-2.25 5.46,-2.25 2.19,0 4.01,0.73 5.49,2.22 1.5,1.5 2.23,3.32 2.23,5.49 0,2.18 -0.73,4.02 -2.23,5.5 -1.48,1.49 -3.3,2.22 -5.49,2.22 -2.13,0 -3.95,-0.75 -5.46,-2.25 -1.5,-1.5 -2.25,-3.32 -2.25,-5.47z"/>
  <path class="fil13" d="M3632.39 1447.28c0,-4.4 1.07,-8.39 3.22,-11.96 2.17,-3.59 5.05,-6.46 8.68,-8.61 3.63,-2.12 7.62,-3.2 12.02,-3.2l16.41 0c4.63,0 8.86,1.08 12.67,3.2 3.84,2.15 6.87,5.02 9.13,8.61 2.25,3.57 3.38,7.56 3.38,11.96l0 37.07c0,4.35 -1.13,8.32 -3.38,11.89 -2.26,3.59 -5.28,6.46 -9.06,8.56 -3.78,2.13 -7.99,3.19 -12.62,3.19l-15.26 0c-4.65,0 -8.87,-1.06 -12.66,-3.19 -3.81,-2.1 -6.86,-4.97 -9.13,-8.56 -2.27,-3.57 -3.4,-7.54 -3.4,-11.89l0 -37.07zm12.53 37.07c0,3.03 1.24,5.65 3.71,7.84 2.48,2.17 5.45,3.27 8.95,3.27l15.26 0c3.49,0 6.45,-1.1 8.9,-3.27 2.45,-2.19 3.7,-4.81 3.7,-7.84l0 -37.07c0,-3.12 -1.25,-5.8 -3.72,-7.99 -2.47,-2.22 -5.47,-3.31 -9,-3.31l-16.41 0c-3.12,0 -5.79,1.09 -8.04,3.31 -2.23,2.19 -3.35,4.87 -3.35,7.99l0 37.07zm67.26 -37.07c0,-4.4 1.07,-8.39 3.22,-11.96 2.17,-3.59 5.05,-6.46 8.68,-8.61 3.63,-2.12 7.62,-3.2 12.02,-3.2l16.41 0c4.63,0 8.86,1.08 12.67,3.2 3.84,2.15 6.88,5.02 9.13,8.61 2.25,3.57 3.38,7.56 3.38,11.96l0 37.07c0,4.35 -1.13,8.32 -3.38,11.89 -2.25,3.59 -5.27,6.46 -9.06,8.56 -3.77,2.13 -7.99,3.19 -12.62,3.19l-15.26 0c-4.65,0 -8.87,-1.06 -12.66,-3.19 -3.81,-2.1 -6.85,-4.97 -9.12,-8.56 -2.27,-3.57 -3.41,-7.54 -3.41,-11.89l0 -37.07zm12.53 37.07c0,3.03 1.24,5.65 3.71,7.84 2.48,2.17 5.45,3.27 8.95,3.27l15.26 0c3.49,0 6.45,-1.1 8.9,-3.27 2.45,-2.19 3.7,-4.81 3.7,-7.84l0 -37.07c0,-3.12 -1.25,-5.8 -3.72,-7.99 -2.47,-2.22 -5.47,-3.31 -9,-3.31l-16.41 0c-3.12,0 -5.79,1.09 -8.04,3.31 -2.23,2.19 -3.35,4.87 -3.35,7.99l0 37.07zm67.26 -37.07c0,-4.4 1.07,-8.39 3.22,-11.96 2.17,-3.59 5.05,-6.46 8.68,-8.61 3.63,-2.12 7.62,-3.2 12.03,-3.2l16.4 0c4.63,0 8.87,1.08 12.67,3.2 3.84,2.15 6.88,5.02 9.13,8.61 2.25,3.57 3.38,7.56 3.38,11.96l0 37.07c0,4.35 -1.13,8.32 -3.38,11.89 -2.25,3.59 -5.27,6.46 -9.06,8.56 -3.77,2.13 -7.99,3.19 -12.62,3.19l-15.26 0c-4.65,0 -8.87,-1.06 -12.66,-3.19 -3.81,-2.1 -6.85,-4.97 -9.12,-8.56 -2.27,-3.57 -3.41,-7.54 -3.41,-11.89l0 -37.07zm12.53 37.07c0,3.03 1.24,5.65 3.71,7.84 2.48,2.17 5.45,3.27 8.95,3.27l15.26 0c3.49,0 6.45,-1.1 8.9,-3.27 2.45,-2.19 3.7,-4.81 3.7,-7.84l0 -37.07c0,-3.12 -1.25,-5.8 -3.72,-7.99 -2.47,-2.22 -5.47,-3.31 -9,-3.31l-16.4 0c-3.13,0 -5.8,1.09 -8.05,3.31 -2.23,2.19 -3.35,4.87 -3.35,7.99l0 37.07zm67.26 -37.07c0,-4.4 1.07,-8.39 3.22,-11.96 2.17,-3.59 5.06,-6.46 8.68,-8.61 3.63,-2.12 7.62,-3.2 12.03,-3.2l16.4 0c4.63,0 8.87,1.08 12.67,3.2 3.84,2.15 6.88,5.02 9.13,8.61 2.25,3.57 3.38,7.56 3.38,11.96l0 37.07c0,4.35 -1.13,8.32 -3.38,11.89 -2.25,3.59 -5.27,6.46 -9.06,8.56 -3.77,2.13 -7.99,3.19 -12.61,3.19l-15.27 0c-4.65,0 -8.87,-1.06 -12.66,-3.19 -3.81,-2.1 -6.85,-4.97 -9.12,-8.56 -2.27,-3.57 -3.41,-7.54 -3.41,-11.89l0 -37.07zm12.53 37.07c0,3.03 1.24,5.65 3.71,7.84 2.48,2.17 5.45,3.27 8.95,3.27l15.27 0c3.48,0 6.44,-1.1 8.89,-3.27 2.45,-2.19 3.7,-4.81 3.7,-7.84l0 -37.07c0,-3.12 -1.25,-5.8 -3.72,-7.99 -2.47,-2.22 -5.47,-3.31 -9,-3.31l-16.4 0c-3.12,0 -5.8,1.09 -8.05,3.31 -2.23,2.19 -3.35,4.87 -3.35,7.99l0 37.07zm67.26 -60.84l12.53 0 0 28.99c0,2.3 0.79,4.24 2.39,5.84 1.6,1.61 3.57,2.42 5.87,2.42l29.11 0 0 -37.25 12.48 0 0 84.48 -12.48 0 0 -34.76 -29.11 0c-3.8,0 -7.29,-0.93 -10.43,-2.8 -3.14,-1.84 -5.65,-4.33 -7.54,-7.44 -1.88,-3.12 -2.82,-6.57 -2.82,-10.36l0 -29.12zm77.83 20.62c0,-3.81 0.91,-7.28 2.77,-10.4 1.87,-3.12 4.36,-5.62 7.49,-7.46 3.13,-1.85 6.6,-2.76 10.39,-2.76l22.76 0c3.85,0 7.34,0.91 10.46,2.76 3.13,1.84 5.62,4.34 7.48,7.46 1.87,3.12 2.8,6.59 2.8,10.4l0 43.07c0,3.79 -0.93,7.26 -2.8,10.43 -1.86,3.14 -4.35,5.65 -7.48,7.54 -3.12,1.88 -6.61,2.82 -10.46,2.82l-39.38 0 0 -12.53 39.38 0c2.29,0 4.25,-0.82 5.86,-2.42 1.6,-1.6 2.39,-3.55 2.39,-5.84l0 -10.4 -31.01 0c-3.79,0 -7.26,-0.85 -10.39,-2.56 -3.13,-1.7 -5.62,-3.99 -7.49,-6.84 -1.86,-2.89 -2.77,-6.07 -2.77,-9.56l0 -13.71zm12.52 13.59c0,2.11 0.79,3.89 2.38,5.39 1.58,1.48 3.51,2.22 5.75,2.22l31.01 0 0 -21.2c0,-2.22 -0.81,-4.14 -2.43,-5.74 -1.62,-1.6 -3.56,-2.41 -5.82,-2.41l-22.76 0c-2.24,0 -4.17,0.79 -5.75,2.37 -1.59,1.61 -2.38,3.51 -2.38,5.78l0 13.59zm78.41 28.16c0,2.9 0.75,5.21 2.26,6.96 1.5,1.75 3.5,2.62 6,2.62l23.05 0c2.29,0 4.26,-0.8 5.88,-2.37 1.63,-1.61 2.43,-3.52 2.43,-5.79l0 -11.58c0,-2.53 -0.8,-4.68 -2.41,-6.47 -1.6,-1.78 -3.54,-2.67 -5.84,-2.67l-43.43 0 0 -43.07 61.07 0 0 12.47 -48.6 0 0 18.41 31.02 0c3.79,0 7.26,0.98 10.38,2.92 3.15,1.95 5.64,4.55 7.49,7.79 1.87,3.25 2.8,6.85 2.8,10.81l0 11.51c0,3.82 -0.93,7.27 -2.82,10.39 -1.89,3.1 -4.38,5.57 -7.52,7.42 -3.12,1.84 -6.62,2.76 -10.45,2.76l-23.05 0c-3.95,0 -7.52,-0.96 -10.67,-2.86 -3.14,-1.88 -5.61,-4.48 -7.42,-7.77 -1.81,-3.3 -2.7,-7.04 -2.7,-11.23l12.53 -0.25zm66.38 -6.4c0,-4.61 1.05,-7.99 3.2,-10.16 2.13,-2.19 5.96,-3.79 11.46,-4.83l31.48 -6.04c1.95,-0.36 3.55,-1.36 4.81,-3 1.28,-1.65 1.91,-3.55 1.91,-5.68l0 -5.48c0,-2.28 -0.81,-4.25 -2.42,-5.87 -1.6,-1.63 -3.55,-2.44 -5.83,-2.44l-40.39 0 0 -12.47 40.39 0c3.83,0 7.32,0.91 10.44,2.76 3.14,1.84 5.64,4.31 7.52,7.4 1.89,3.08 2.82,6.51 2.82,10.28l0 6.07c0,3.32 -0.63,6.4 -1.9,9.26 -1.27,2.84 -3,5.23 -5.2,7.15 -2.19,1.92 -4.71,3.15 -7.52,3.72l-35.34 6.71c-1.14,0.25 -1.93,0.53 -2.34,0.85 -0.42,0.35 -0.63,0.92 -0.63,1.7l0 16.1 52.87 0 0 12.48 -65.33 0 0 -28.51zm79.67 -35.35c0,-3.81 0.91,-7.28 2.77,-10.4 1.87,-3.12 4.37,-5.62 7.49,-7.46 3.14,-1.85 6.61,-2.76 10.4,-2.76l22.75 0c3.85,0 7.34,0.91 10.46,2.76 3.13,1.84 5.62,4.34 7.49,7.46 1.86,3.12 2.8,6.59 2.8,10.4l0 43.07c0,3.79 -0.94,7.26 -2.8,10.43 -1.87,3.14 -4.36,5.65 -7.49,7.54 -3.12,1.88 -6.61,2.82 -10.46,2.82l-39.38 0 0 -12.53 39.38 0c2.3,0 4.25,-0.82 5.87,-2.42 1.6,-1.6 2.38,-3.55 2.38,-5.84l0 -10.4 -31 0c-3.79,0 -7.26,-0.85 -10.4,-2.56 -3.12,-1.7 -5.62,-3.99 -7.49,-6.84 -1.86,-2.89 -2.77,-6.07 -2.77,-9.56l0 -13.71zm12.53 13.59c0,2.11 0.79,3.89 2.37,5.39 1.58,1.48 3.51,2.22 5.76,2.22l31 0 0 -21.2c0,-2.22 -0.81,-4.14 -2.43,-5.74 -1.62,-1.6 -3.55,-2.41 -5.82,-2.41l-22.75 0c-2.25,0 -4.18,0.79 -5.76,2.37 -1.58,1.61 -2.37,3.51 -2.37,5.78l0 13.59zm65.88 -10.44c0,-4.4 1.07,-8.39 3.22,-11.96 2.17,-3.59 5.05,-6.46 8.68,-8.61 3.63,-2.12 7.62,-3.2 12.02,-3.2l16.4 0c4.63,0 8.87,1.08 12.68,3.2 3.83,2.15 6.87,5.02 9.12,8.61 2.26,3.57 3.39,7.56 3.39,11.96l0 37.07c0,4.35 -1.13,8.32 -3.39,11.89 -2.25,3.59 -5.27,6.46 -9.06,8.56 -3.77,2.13 -7.99,3.19 -12.61,3.19l-15.27 0c-4.64,0 -8.86,-1.06 -12.65,-3.19 -3.81,-2.1 -6.86,-4.97 -9.13,-8.56 -2.27,-3.57 -3.4,-7.54 -3.4,-11.89l0 -37.07zm12.53 37.07c0,3.03 1.23,5.65 3.7,7.84 2.48,2.17 5.46,3.27 8.95,3.27l15.27 0c3.49,0 6.44,-1.1 8.9,-3.27 2.45,-2.19 3.69,-4.81 3.69,-7.84l0 -37.07c0,-3.12 -1.24,-5.8 -3.71,-7.99 -2.47,-2.22 -5.47,-3.31 -9.01,-3.31l-16.4 0c-3.12,0 -5.79,1.09 -8.04,3.31 -2.24,2.19 -3.35,4.87 -3.35,7.99l0 37.07zm372.25 1.53c0,2.9 0.75,5.21 2.25,6.96 1.5,1.75 3.51,2.62 6.01,2.62l23.05 0c2.29,0 4.26,-0.8 5.88,-2.37 1.63,-1.61 2.43,-3.52 2.43,-5.79l0 -11.58c0,-2.53 -0.8,-4.68 -2.41,-6.47 -1.6,-1.78 -3.55,-2.67 -5.84,-2.67l-43.43 0 0 -43.07 61.07 0 0 12.47 -48.6 0 0 18.41 31.02 0c3.79,0 7.26,0.98 10.38,2.92 3.15,1.95 5.64,4.55 7.49,7.79 1.86,3.25 2.8,6.85 2.8,10.81l0 11.51c0,3.82 -0.94,7.27 -2.82,10.39 -1.89,3.1 -4.39,5.57 -7.52,7.42 -3.13,1.84 -6.62,2.76 -10.45,2.76l-23.05 0c-3.96,0 -7.53,-0.96 -10.67,-2.86 -3.14,-1.88 -5.61,-4.48 -7.42,-7.77 -1.81,-3.3 -2.7,-7.04 -2.7,-11.23l12.53 -0.25zm66.07 -7.6c0,-3.08 0.85,-5.98 2.56,-8.68 1.7,-2.67 3.99,-4.82 6.89,-6.41 -5.24,-2.96 -7.84,-7.52 -7.84,-13.66l0 -5.24c0,-3.83 0.93,-7.32 2.81,-10.44 1.89,-3.14 4.4,-5.64 7.55,-7.52 3.15,-1.89 6.64,-2.82 10.48,-2.82l19.36 0c3.85,0 7.34,0.93 10.46,2.82 3.12,1.88 5.64,4.38 7.53,7.52 1.86,3.12 2.82,6.61 2.82,10.44l0 5.24c0,6.22 -2.59,10.76 -7.79,13.66 2.94,1.59 5.23,3.71 6.9,6.39 1.65,2.68 2.49,5.58 2.49,8.7l0 7.97c0,3.99 -0.94,7.64 -2.8,10.93 -1.86,3.28 -4.36,5.9 -7.48,7.87 -3.12,1.97 -6.61,2.94 -10.46,2.94l-22.69 0c-3.8,0 -7.29,-0.97 -10.43,-2.94 -3.14,-1.97 -5.65,-4.59 -7.54,-7.87 -1.88,-3.29 -2.82,-6.94 -2.82,-10.93l0 -7.97zm14.13 -28.75c0,2.32 0.87,4.26 2.6,5.76 1.72,1.52 3.91,2.27 6.55,2.27l17.7 0c2.7,0 4.9,-0.75 6.61,-2.27 1.71,-1.5 2.56,-3.44 2.56,-5.76l0 -5.24c0,-2.28 -0.9,-4.23 -2.68,-5.83 -1.79,-1.61 -3.96,-2.42 -6.49,-2.42l-18.53 0c-2.29,0 -4.26,0.81 -5.88,2.42 -1.63,1.6 -2.44,3.55 -2.44,5.83l0 5.24zm-1.6 36.84c0,2.5 0.91,4.62 2.74,6.41 1.82,1.78 3.99,2.68 6.53,2.68l20.96 0c2.46,0 4.57,-0.9 6.33,-2.66 1.76,-1.75 2.66,-3.88 2.66,-6.39l0 -8.13c0,-2.29 -0.79,-4.24 -2.38,-5.84 -1.6,-1.62 -3.49,-2.41 -5.71,-2.41l-22.87 0c-2.3,0 -4.25,0.89 -5.85,2.67 -1.6,1.79 -2.41,3.94 -2.41,6.47l0 7.2zm65.66 -42.24c0,-3.81 0.92,-7.28 2.78,-10.4 1.86,-3.12 4.36,-5.62 7.48,-7.46 3.14,-1.85 6.61,-2.76 10.4,-2.76l22.75 0c3.86,0 7.34,0.91 10.46,2.76 3.13,1.84 5.62,4.34 7.49,7.46 1.87,3.12 2.8,6.59 2.8,10.4l0 43.07c0,3.79 -0.93,7.26 -2.8,10.43 -1.87,3.14 -4.36,5.65 -7.49,7.54 -3.12,1.88 -6.6,2.82 -10.46,2.82l-39.37 0 0 -12.53 39.37 0c2.3,0 4.26,-0.82 5.87,-2.42 1.6,-1.6 2.39,-3.55 2.39,-5.84l0 -10.4 -31.01 0c-3.79,0 -7.26,-0.85 -10.4,-2.56 -3.12,-1.7 -5.62,-3.99 -7.48,-6.84 -1.86,-2.89 -2.78,-6.07 -2.78,-9.56l0 -13.71zm12.53 13.59c0,2.11 0.79,3.89 2.37,5.39 1.59,1.48 3.52,2.22 5.76,2.22l31.01 0 0 -21.2c0,-2.22 -0.82,-4.14 -2.44,-5.74 -1.62,-1.6 -3.55,-2.41 -5.82,-2.41l-22.75 0c-2.24,0 -4.17,0.79 -5.76,2.37 -1.58,1.61 -2.37,3.51 -2.37,5.78l0 13.59zm65.88 21.76c0,-4.61 1.05,-7.99 3.2,-10.16 2.14,-2.19 5.96,-3.79 11.46,-4.83l31.49 -6.04c1.95,-0.36 3.55,-1.36 4.8,-3 1.28,-1.65 1.92,-3.55 1.92,-5.68l0 -5.48c0,-2.28 -0.82,-4.25 -2.42,-5.87 -1.6,-1.63 -3.55,-2.44 -5.84,-2.44l-40.39 0 0 -12.47 40.39 0c3.83,0 7.32,0.91 10.44,2.76 3.14,1.84 5.64,4.31 7.53,7.4 1.88,3.08 2.82,6.51 2.82,10.28l0 6.07c0,3.32 -0.64,6.4 -1.91,9.26 -1.26,2.84 -3,5.23 -5.2,7.15 -2.18,1.92 -4.7,3.15 -7.52,3.72l-35.34 6.71c-1.13,0.25 -1.93,0.53 -2.33,0.85 -0.42,0.35 -0.63,0.92 -0.63,1.7l0 16.1 52.86 0 0 12.48 -65.33 0 0 -28.51zm79.67 -32.2c0,-4.4 1.07,-8.39 3.22,-11.96 2.17,-3.59 5.06,-6.46 8.68,-8.61 3.63,-2.12 7.62,-3.2 12.03,-3.2l16.4 0c4.63,0 8.87,1.08 12.67,3.2 3.84,2.15 6.88,5.02 9.13,8.61 2.25,3.57 3.39,7.56 3.39,11.96l0 37.07c0,4.35 -1.14,8.32 -3.39,11.89 -2.25,3.59 -5.27,6.46 -9.06,8.56 -3.77,2.13 -7.99,3.19 -12.61,3.19l-15.27 0c-4.65,0 -8.87,-1.06 -12.66,-3.19 -3.8,-2.1 -6.85,-4.97 -9.12,-8.56 -2.27,-3.57 -3.41,-7.54 -3.41,-11.89l0 -37.07zm12.53 37.07c0,3.03 1.24,5.65 3.71,7.84 2.48,2.17 5.45,3.27 8.95,3.27l15.27 0c3.48,0 6.44,-1.1 8.89,-3.27 2.46,-2.19 3.7,-4.81 3.7,-7.84l0 -37.07c0,-3.12 -1.24,-5.8 -3.72,-7.99 -2.47,-2.22 -5.47,-3.31 -9,-3.31l-16.4 0c-3.12,0 -5.8,1.09 -8.05,3.31 -2.23,2.19 -3.35,4.87 -3.35,7.99l0 37.07zm64.28 -60.84l27.15 0 0 84.48 -12.47 0 0 -72.01 -14.68 0 0 -12.47zm42.6 71.95l44.25 0c2.29,0 4.25,-0.82 5.85,-2.42 1.61,-1.6 2.4,-3.5 2.4,-5.74l0 -7.94c0,-2.58 -1.08,-4.77 -3.26,-6.59 -2.17,-1.83 -4.79,-2.74 -7.83,-2.74l-19.27 0 0 -12.47 19.27 0c2.59,0 4.82,-0.92 6.67,-2.74 1.84,-1.82 2.76,-3.99 2.76,-6.53l0 -4c0,-2.28 -0.79,-4.25 -2.39,-5.87 -1.6,-1.63 -3.57,-2.44 -5.87,-2.44l-42.58 0 0 -12.47 42.58 0c3.85,0 7.34,0.93 10.49,2.8 3.16,1.85 5.66,4.36 7.52,7.51 1.87,3.15 2.8,6.64 2.8,10.47l0 4.22c0,6.27 -2.39,11.13 -7.14,14.62 3.04,1.83 5.28,4.04 6.65,6.64 1.4,2.59 2.1,5.82 2.1,9.71l0 7.94c0,3.82 -0.94,7.27 -2.81,10.39 -1.86,3.1 -4.36,5.57 -7.52,7.42 -3.15,1.84 -6.61,2.76 -10.42,2.76l-44.25 0 0 -12.53zm79.25 -48.18c0,-4.4 1.07,-8.39 3.22,-11.96 2.17,-3.59 5.05,-6.46 8.67,-8.61 3.64,-2.12 7.63,-3.2 12.03,-3.2l16.4 0c4.63,0 8.87,1.08 12.68,3.2 3.83,2.15 6.87,5.02 9.12,8.61 2.25,3.57 3.39,7.56 3.39,11.96l0 37.07c0,4.35 -1.14,8.32 -3.39,11.89 -2.25,3.59 -5.27,6.46 -9.06,8.56 -3.77,2.13 -7.99,3.19 -12.61,3.19l-15.27 0c-4.65,0 -8.87,-1.06 -12.65,-3.19 -3.81,-2.1 -6.86,-4.97 -9.13,-8.56 -2.27,-3.57 -3.4,-7.54 -3.4,-11.89l0 -37.07zm12.53 37.07c0,3.03 1.23,5.65 3.7,7.84 2.48,2.17 5.46,3.27 8.95,3.27l15.27 0c3.49,0 6.44,-1.1 8.9,-3.27 2.45,-2.19 3.69,-4.81 3.69,-7.84l0 -37.07c0,-3.12 -1.24,-5.8 -3.71,-7.99 -2.47,-2.22 -5.48,-3.31 -9.01,-3.31l-16.4 0c-3.12,0 -5.79,1.09 -8.04,3.31 -2.24,2.19 -3.35,4.87 -3.35,7.99l0 37.07zm67.26 -40.06c0,-3.83 0.91,-7.32 2.77,-10.47 1.87,-3.15 4.38,-5.66 7.52,-7.51 3.15,-1.87 6.66,-2.8 10.49,-2.8l39.38 0 0 12.47 -39.38 0c-2.3,0 -4.26,0.81 -5.87,2.44 -1.6,1.62 -2.38,3.59 -2.38,5.87l0 10.35 31 0c3.81,0 7.26,0.85 10.4,2.55 3.12,1.7 5.62,4 7.44,6.86 1.85,2.88 2.78,6.05 2.78,9.55l0 13.77c0,3.8 -0.93,7.25 -2.78,10.37 -1.82,3.11 -4.32,5.58 -7.44,7.45 -3.14,1.86 -6.59,2.8 -10.4,2.8l-22.75 0c-3.8,0 -7.28,-0.94 -10.42,-2.8 -3.14,-1.87 -5.66,-4.34 -7.54,-7.45 -1.89,-3.12 -2.82,-6.57 -2.82,-10.37l0 -43.08zm12.53 43.08c0,2.23 0.78,4.11 2.38,5.72 1.61,1.57 3.57,2.37 5.87,2.37l22.75 0c2.25,0 4.18,-0.8 5.76,-2.37 1.58,-1.61 2.37,-3.49 2.37,-5.72l0 -13.77c0,-2.11 -0.79,-3.88 -2.37,-5.32 -1.58,-1.45 -3.51,-2.17 -5.76,-2.17l-31 0 0 21.26zm65.87 -40.09c0,-4.4 1.08,-8.39 3.23,-11.96 2.17,-3.59 5.05,-6.46 8.67,-8.61 3.64,-2.12 7.63,-3.2 12.03,-3.2l16.4 0c4.63,0 8.87,1.08 12.68,3.2 3.83,2.15 6.87,5.02 9.12,8.61 2.25,3.57 3.39,7.56 3.39,11.96l0 37.07c0,4.35 -1.14,8.32 -3.39,11.89 -2.25,3.59 -5.27,6.46 -9.06,8.56 -3.77,2.13 -7.99,3.19 -12.61,3.19l-15.27 0c-4.65,0 -8.87,-1.06 -12.66,-3.19 -3.8,-2.1 -6.85,-4.97 -9.12,-8.56 -2.27,-3.57 -3.41,-7.54 -3.41,-11.89l0 -37.07zm12.53 37.07c0,3.03 1.24,5.65 3.71,7.84 2.48,2.17 5.46,3.27 8.95,3.27l15.27 0c3.49,0 6.44,-1.1 8.89,-3.27 2.46,-2.19 3.7,-4.81 3.7,-7.84l0 -37.07c0,-3.12 -1.24,-5.8 -3.71,-7.99 -2.47,-2.22 -5.48,-3.31 -9.01,-3.31l-16.4 0c-3.12,0 -5.79,1.09 -8.05,3.31 -2.23,2.19 -3.35,4.87 -3.35,7.99l0 37.07zm584.33 -4.87c0,-4.61 1.05,-7.99 3.2,-10.16 2.14,-2.19 5.96,-3.79 11.46,-4.83l31.49 -6.04c1.95,-0.36 3.55,-1.36 4.8,-3 1.28,-1.65 1.91,-3.55 1.91,-5.68l0 -5.48c0,-2.28 -0.81,-4.25 -2.41,-5.87 -1.6,-1.63 -3.55,-2.44 -5.84,-2.44l-40.39 0 0 -12.47 40.39 0c3.83,0 7.32,0.91 10.44,2.76 3.14,1.84 5.64,4.31 7.53,7.4 1.88,3.08 2.81,6.51 2.81,10.28l0 6.07c0,3.32 -0.63,6.4 -1.9,9.26 -1.26,2.84 -3,5.23 -5.2,7.15 -2.19,1.92 -4.7,3.15 -7.52,3.72l-35.34 6.71c-1.13,0.25 -1.93,0.53 -2.33,0.85 -0.42,0.35 -0.63,0.92 -0.63,1.7l0 16.1 52.86 0 0 12.48 -65.33 0 0 -28.51zm79.67 0c0,-4.61 1.05,-7.99 3.21,-10.16 2.13,-2.19 5.95,-3.79 11.45,-4.83l31.49 -6.04c1.95,-0.36 3.55,-1.36 4.8,-3 1.29,-1.65 1.92,-3.55 1.92,-5.68l0 -5.48c0,-2.28 -0.82,-4.25 -2.42,-5.87 -1.6,-1.63 -3.55,-2.44 -5.84,-2.44l-40.39 0 0 -12.47 40.39 0c3.84,0 7.32,0.91 10.44,2.76 3.14,1.84 5.64,4.31 7.53,7.4 1.88,3.08 2.82,6.51 2.82,10.28l0 6.07c0,3.32 -0.64,6.4 -1.91,9.26 -1.26,2.84 -3,5.23 -5.2,7.15 -2.18,1.92 -4.7,3.15 -7.52,3.72l-35.34 6.71c-1.13,0.25 -1.93,0.53 -2.33,0.85 -0.42,0.35 -0.63,0.92 -0.63,1.7l0 16.1 52.86 0 0 12.48 -65.33 0 0 -28.51zm79.67 0c0,-4.61 1.06,-7.99 3.21,-10.16 2.13,-2.19 5.96,-3.79 11.46,-4.83l31.48 -6.04c1.95,-0.36 3.55,-1.36 4.81,-3 1.28,-1.65 1.91,-3.55 1.91,-5.68l0 -5.48c0,-2.28 -0.82,-4.25 -2.42,-5.87 -1.6,-1.63 -3.55,-2.44 -5.84,-2.44l-40.39 0 0 -12.47 40.39 0c3.84,0 7.32,0.91 10.45,2.76 3.13,1.84 5.63,4.31 7.52,7.4 1.88,3.08 2.82,6.51 2.82,10.28l0 6.07c0,3.32 -0.63,6.4 -1.91,9.26 -1.26,2.84 -3,5.23 -5.19,7.15 -2.19,1.92 -4.71,3.15 -7.53,3.72l-35.34 6.71c-1.13,0.25 -1.93,0.53 -2.33,0.85 -0.42,0.35 -0.63,0.92 -0.63,1.7l0 16.1 52.86 0 0 12.48 -65.33 0 0 -28.51zm79.68 -32.2c0,-4.4 1.07,-8.39 3.22,-11.96 2.17,-3.59 5.05,-6.46 8.67,-8.61 3.64,-2.12 7.63,-3.2 12.03,-3.2l16.4 0c4.63,0 8.87,1.08 12.68,3.2 3.83,2.15 6.87,5.02 9.12,8.61 2.25,3.57 3.39,7.56 3.39,11.96l0 37.07c0,4.35 -1.14,8.32 -3.39,11.89 -2.25,3.59 -5.27,6.46 -9.06,8.56 -3.77,2.13 -7.99,3.19 -12.61,3.19l-15.27 0c-4.65,0 -8.87,-1.06 -12.65,-3.19 -3.81,-2.1 -6.86,-4.97 -9.13,-8.56 -2.27,-3.57 -3.4,-7.54 -3.4,-11.89l0 -37.07zm12.53 37.07c0,3.03 1.23,5.65 3.7,7.84 2.48,2.17 5.46,3.27 8.95,3.27l15.27 0c3.49,0 6.44,-1.1 8.9,-3.27 2.45,-2.19 3.69,-4.81 3.69,-7.84l0 -37.07c0,-3.12 -1.24,-5.8 -3.71,-7.99 -2.47,-2.22 -5.48,-3.31 -9.01,-3.31l-16.4 0c-3.12,0 -5.79,1.09 -8.05,3.31 -2.23,2.19 -3.34,4.87 -3.34,7.99l0 37.07zm67.26 -4.87c0,-4.61 1.05,-7.99 3.2,-10.16 2.13,-2.19 5.96,-3.79 11.46,-4.83l31.48 -6.04c1.95,-0.36 3.55,-1.36 4.81,-3 1.28,-1.65 1.91,-3.55 1.91,-5.68l0 -5.48c0,-2.28 -0.81,-4.25 -2.42,-5.87 -1.6,-1.63 -3.55,-2.44 -5.83,-2.44l-40.39 0 0 -12.47 40.39 0c3.83,0 7.32,0.91 10.44,2.76 3.14,1.84 5.64,4.31 7.52,7.4 1.89,3.08 2.82,6.51 2.82,10.28l0 6.07c0,3.32 -0.63,6.4 -1.9,9.26 -1.27,2.84 -3.01,5.23 -5.2,7.15 -2.19,1.92 -4.71,3.15 -7.53,3.72l-35.33 6.71c-1.14,0.25 -1.93,0.53 -2.34,0.85 -0.42,0.35 -0.63,0.92 -0.63,1.7l0 16.1 52.87 0 0 12.48 -65.33 0 0 -28.51zm76.68 -55.97l27.16 0 0 84.48 -12.48 0 0 -72.01 -14.68 0 0 -12.47zm42.61 23.77c0,-4.4 1.07,-8.39 3.22,-11.96 2.17,-3.59 5.05,-6.46 8.68,-8.61 3.63,-2.12 7.62,-3.2 12.02,-3.2l16.4 0c4.64,0 8.87,1.08 12.68,3.2 3.84,2.15 6.87,5.02 9.13,8.61 2.25,3.57 3.38,7.56 3.38,11.96l0 37.07c0,4.35 -1.13,8.32 -3.38,11.89 -2.26,3.59 -5.28,6.46 -9.07,8.56 -3.77,2.13 -7.99,3.19 -12.61,3.19l-15.26 0c-4.65,0 -8.87,-1.06 -12.66,-3.19 -3.81,-2.1 -6.86,-4.97 -9.13,-8.56 -2.27,-3.57 -3.4,-7.54 -3.4,-11.89l0 -37.07zm12.53 37.07c0,3.03 1.23,5.65 3.7,7.84 2.49,2.17 5.46,3.27 8.96,3.27l15.26 0c3.49,0 6.45,-1.1 8.9,-3.27 2.45,-2.19 3.7,-4.81 3.7,-7.84l0 -37.07c0,-3.12 -1.25,-5.8 -3.72,-7.99 -2.47,-2.22 -5.47,-3.31 -9.01,-3.31l-16.4 0c-3.12,0 -5.79,1.09 -8.04,3.31 -2.24,2.19 -3.35,4.87 -3.35,7.99l0 37.07zm67.26 -60.84l64.21 0 0 9.02 -45.68 75.46 -14.44 0 43.66 -72.01 -47.75 0 0 -12.47zm75.49 0l27.15 0 0 84.48 -12.47 0 0 -72.01 -14.68 0 0 -12.47z"/>
  <path class="fil13" d="M3320.61 1646.94c0,-3 0.74,-5.73 2.25,-8.18 1.5,-2.47 3.52,-4.43 6.05,-5.9 2.53,-1.47 5.33,-2.19 8.4,-2.19l34.79 0 0 9.93 -34.79 0c-1.84,0 -3.41,0.64 -4.73,1.93 -1.33,1.29 -1.99,2.85 -1.99,4.68l0 4.63c0,1.68 0.66,3.12 1.99,4.31 1.32,1.19 2.89,1.8 4.73,1.8l21.41 0c3.09,0 5.9,0.74 8.42,2.2 2.53,1.46 4.53,3.45 6.04,5.92 1.5,2.47 2.24,5.21 2.24,8.2l0 7.33c0,3 -0.74,5.73 -2.24,8.22 -1.51,2.46 -3.51,4.44 -6.04,5.9 -2.52,1.47 -5.33,2.2 -8.42,2.2l-38.08 0 0 -9.98 38.08 0c1.86,0 3.45,-0.63 4.75,-1.88 1.31,-1.23 1.97,-2.74 1.97,-4.52l0 -7.23c0,-1.75 -0.66,-3.27 -1.97,-4.53 -1.3,-1.26 -2.89,-1.89 -4.75,-1.89l-21.41 0c-3.07,0 -5.87,-0.73 -8.4,-2.16 -2.53,-1.44 -4.55,-3.36 -6.05,-5.8 -1.51,-2.42 -2.25,-5.1 -2.25,-8.04l0 -4.95zm65.69 19.58c0,-3.26 0.81,-6.2 2.39,-8.85 1.6,-2.65 3.72,-4.77 6.41,-6.36 2.68,-1.6 5.65,-2.39 8.89,-2.39l27.33 0 0 49 -1.42 0c-0.71,1.98 -1.19,3.36 -1.4,4.12 -0.23,0.76 -0.34,1.37 -0.34,1.84 0,0.97 0.64,1.46 1.93,1.46 0.43,0 0.91,-0.03 1.48,-0.09 0.56,-0.07 1.8,-0.26 3.72,-0.57l0 7.01c-2.07,0.3 -3.58,0.51 -4.5,0.61 -0.93,0.08 -1.79,0.13 -2.58,0.13 -4.8,0 -7.19,-2.05 -7.19,-6.14 0,-2.24 0.64,-5.03 1.89,-8.37l-1.57 0 0 -39.02 -17.35 0c-2.11,0 -3.92,0.74 -5.43,2.24 -1.52,1.5 -2.28,3.33 -2.28,5.46l0 13.52c0,2.16 0.76,4 2.28,5.52 1.51,1.52 3.32,2.3 5.43,2.3l11.69 0 0 9.98 -11.69 0c-3.24,0 -6.21,-0.79 -8.89,-2.39 -2.69,-1.6 -4.81,-3.73 -6.41,-6.41 -1.58,-2.68 -2.39,-5.65 -2.39,-8.89l0 -13.71zm55.9 0.08c0,-3.24 0.81,-6.2 2.39,-8.88 1.6,-2.68 3.73,-4.82 6.41,-6.41 2.68,-1.6 5.65,-2.39 8.89,-2.39l11.69 0 0 9.98 -11.69 0c-2.11,0 -3.91,0.76 -5.43,2.29 -1.52,1.54 -2.28,3.38 -2.28,5.51l0 13.53c0,2.11 0.76,3.91 2.28,5.43 1.52,1.52 3.32,2.28 5.43,2.28l17.36 0 0 -57.27 9.97 0 0 57.27c0,2.75 -0.97,5.09 -2.92,7.04 -1.95,1.95 -4.31,2.94 -7.05,2.94l-17.36 0c-3.24,0 -6.21,-0.79 -8.89,-2.39 -2.68,-1.6 -4.81,-3.72 -6.41,-6.38 -1.58,-2.68 -2.39,-5.62 -2.39,-8.83l0 -13.72zm85.71 -35.93l35.56 0c3.07,0 5.84,0.74 8.35,2.24 2.52,1.5 4.52,3.48 6,5.98 1.5,2.49 2.26,5.27 2.26,8.32l0 6.72c0,3.07 -0.74,5.82 -2.21,8.27 -1.46,2.47 -3.45,4.43 -5.97,5.87 -2.52,1.45 -5.34,2.18 -8.47,2.18l20.06 27.67 -12.16 0 -20.07 -27.67 -7.69 0 0 -9.93 19.9 0c1.88,0 3.44,-0.65 4.73,-1.92 1.29,-1.28 1.94,-2.81 1.94,-4.61l0 -6.58c0,-1.83 -0.65,-3.39 -1.94,-4.68 -1.29,-1.29 -2.85,-1.93 -4.73,-1.93l-25.59 0 0 57.32 -9.97 0 0 -67.25zm64.09 28.38c0,-2.81 1.02,-5.2 3.07,-7.17 2.05,-1.98 4.5,-2.96 7.37,-2.96l20.44 0c2.62,0 4.99,0.64 7.12,1.91 2.12,1.29 3.83,3 5.1,5.16 1.28,2.17 1.92,4.56 1.92,7.17l0 1.37c0,2.59 -0.64,4.94 -1.92,7.07 -1.27,2.12 -2.98,3.83 -5.1,5.1 -2.13,1.28 -4.5,1.92 -7.12,1.92l-15.24 0 0 -9.94 15.34 0c1.13,0 2.1,-0.4 2.9,-1.22 0.81,-0.83 1.2,-1.81 1.2,-2.98l0 -1.32c0,-1.21 -0.39,-2.21 -1.2,-3.03 -0.8,-0.83 -1.77,-1.23 -2.9,-1.23l-21 0 0 25.17c0,1.06 0.35,1.99 1.08,2.73 0.72,0.76 1.61,1.14 2.64,1.14l27.87 0 0 9.98 -27.87 0c-2.52,0 -4.82,-0.63 -6.91,-1.88 -2.06,-1.23 -3.72,-2.9 -4.95,-5 -1.23,-2.1 -1.84,-4.41 -1.84,-6.92l0 -25.07zm57.36 -23.42c0,-1.71 0.61,-3.16 1.82,-4.37 1.21,-1.23 2.66,-1.82 4.37,-1.82 1.67,0 3.11,0.59 4.3,1.79 1.21,1.19 1.81,2.67 1.81,4.4 0,1.7 -0.6,3.14 -1.78,4.33 -1.18,1.18 -2.63,1.78 -4.33,1.78 -1.74,0 -3.19,-0.61 -4.41,-1.81 -1.19,-1.19 -1.78,-2.63 -1.78,-4.3zm-6.21 70.8c2.35,0 4.04,-0.12 5.09,-0.33 1.06,-0.22 1.73,-0.74 2.02,-1.53 0.27,-0.8 0.42,-2.09 0.42,-3.82l0 -51.83 9.97 0 0 51.83c0,3.98 -0.51,7.12 -1.57,9.39 -1.05,2.29 -2.87,3.9 -5.4,4.86 -2.54,0.93 -6.03,1.41 -10.53,1.41l0 -9.98zm28.24 -39.83c0,-3.24 0.8,-6.2 2.39,-8.88 1.6,-2.68 3.72,-4.82 6.4,-6.41 2.69,-1.6 5.66,-2.39 8.9,-2.39l10.69 0c3.24,0 6.21,0.79 8.9,2.39 2.67,1.59 4.8,3.73 6.4,6.41 1.59,2.68 2.39,5.64 2.39,8.88l0 13.63c0,3.24 -0.8,6.21 -2.39,8.89 -1.6,2.68 -3.73,4.81 -6.4,6.41 -2.69,1.6 -5.66,2.39 -8.9,2.39l-10.69 0c-3.24,0 -6.21,-0.79 -8.9,-2.39 -2.68,-1.6 -4.8,-3.73 -6.4,-6.41 -1.59,-2.68 -2.39,-5.65 -2.39,-8.89l0 -13.63zm9.97 13.52c0,2.16 0.76,4 2.28,5.52 1.52,1.52 3.33,2.3 5.44,2.3l10.69 0c2.14,0 3.97,-0.78 5.45,-2.3 1.51,-1.52 2.27,-3.36 2.27,-5.52l0 -13.42c0,-2.13 -0.76,-3.97 -2.27,-5.51 -1.48,-1.53 -3.31,-2.29 -5.45,-2.29l-10.69 0c-2.11,0 -3.92,0.76 -5.44,2.29 -1.52,1.54 -2.28,3.38 -2.28,5.51l0 13.42zm46.98 -21.27c0,-2.74 0.98,-5.08 2.96,-7.02 1.97,-1.94 4.34,-2.91 7.12,-2.91l17.25 0c3.25,0 6.22,0.79 8.9,2.39 2.68,1.59 4.81,3.73 6.41,6.41 1.58,2.68 2.38,5.64 2.38,8.88l0 31.32 -9.99 0 0 -31.18c0,-2.19 -0.74,-4.08 -2.24,-5.62 -1.49,-1.54 -3.31,-2.32 -5.46,-2.32l-17.35 0 0 39.12 -9.98 0 0 -39.07zm55.89 7.75c0,-3.24 0.8,-6.2 2.39,-8.88 1.6,-2.68 3.72,-4.82 6.4,-6.41 2.69,-1.6 5.66,-2.39 8.9,-2.39l10.69 0c3.24,0 6.21,0.79 8.9,2.39 2.67,1.59 4.8,3.73 6.4,6.41 1.59,2.68 2.39,5.64 2.39,8.88l0 13.63c0,3.24 -0.8,6.21 -2.39,8.89 -1.6,2.68 -3.73,4.81 -6.4,6.41 -2.69,1.6 -5.66,2.39 -8.9,2.39l-10.69 0c-3.24,0 -6.21,-0.79 -8.9,-2.39 -2.68,-1.6 -4.8,-3.73 -6.4,-6.41 -1.59,-2.68 -2.39,-5.65 -2.39,-8.89l0 -13.63zm9.97 13.52c0,2.16 0.76,4 2.28,5.52 1.52,1.52 3.33,2.3 5.44,2.3l10.69 0c2.14,0 3.97,-0.78 5.45,-2.3 1.51,-1.52 2.27,-3.36 2.27,-5.52l0 -13.42c0,-2.13 -0.76,-3.97 -2.27,-5.51 -1.48,-1.53 -3.31,-2.29 -5.45,-2.29l-10.69 0c-2.11,0 -3.92,0.76 -5.44,2.29 -1.52,1.54 -2.28,3.38 -2.28,5.51l0 13.42zm54.17 -31.2l5.63 32.45 12.11 -20.68 9.41 0 12.1 20.68 5.62 -32.45 9.98 0 -8.46 49 -8.75 0 -15.17 -25.68 -15.24 25.68 -8.75 0 -8.51 -49 10.03 0zm71.13 0l12.71 33.95 13.02 -33.95 11.01 0 -26.01 67.45 -10.93 0 7.62 -20.06 -18.02 -47.39 10.6 0zm70.8 0.66c0,-3.5 0.91,-6.68 2.71,-9.52 1.82,-2.86 4.23,-5.13 7.27,-6.84 3.02,-1.7 6.38,-2.55 10.08,-2.55l31.81 0 0 9.93 -31.81 0c-2.79,0 -5.16,0.87 -7.12,2.62 -1.97,1.75 -2.96,3.86 -2.96,6.32l0 29.5c0,2.46 0.99,4.57 2.96,6.32 1.96,1.76 4.33,2.63 7.12,2.63l15.73 0c2.81,0 5.2,-0.87 7.16,-2.63 1.95,-1.75 2.92,-3.86 2.92,-6.32l0 -8.79 -18.24 0 0 -9.93 28.23 0 0 18.68c0,3.47 -0.91,6.63 -2.7,9.51 -1.8,2.87 -4.23,5.14 -7.27,6.85 -3.04,1.71 -6.4,2.56 -10.1,2.56l-15.73 0c-3.7,0 -7.06,-0.85 -10.08,-2.56 -3.04,-1.71 -5.45,-3.98 -7.27,-6.85 -1.8,-2.88 -2.71,-6.04 -2.71,-9.51l0 -29.42zm66.72 17.02c0,-3.24 0.81,-6.2 2.39,-8.88 1.61,-2.68 3.73,-4.82 6.41,-6.41 2.68,-1.6 5.66,-2.39 8.9,-2.39l11.68 0 0 9.98 -11.68 0c-2.12,0 -3.92,0.76 -5.44,2.29 -1.52,1.54 -2.28,3.38 -2.28,5.51l0 13.53c0,2.11 0.76,3.91 2.28,5.43 1.52,1.52 3.32,2.28 5.44,2.28l17.35 0 0 -57.27 9.98 0 0 57.27c0,2.75 -0.97,5.09 -2.92,7.04 -1.95,1.95 -4.31,2.94 -7.06,2.94l-17.35 0c-3.24,0 -6.22,-0.79 -8.9,-2.39 -2.68,-1.6 -4.8,-3.72 -6.41,-6.38 -1.58,-2.68 -2.39,-5.62 -2.39,-8.83l0 -13.72zm55.91 -0.08c0,-3.26 0.8,-6.2 2.39,-8.85 1.6,-2.65 3.72,-4.77 6.4,-6.36 2.68,-1.6 5.66,-2.39 8.9,-2.39l27.33 0 0 49 -9.98 0 0 -39.02 -17.35 0c-2.11,0 -3.92,0.74 -5.44,2.24 -1.52,1.5 -2.28,3.33 -2.28,5.46l0 13.52c0,2.16 0.76,4 2.28,5.52 1.52,1.52 3.33,2.3 5.44,2.3l11.69 0 0 9.98 -11.69 0c-3.24,0 -6.22,-0.79 -8.9,-2.39 -2.68,-1.6 -4.8,-3.73 -6.4,-6.41 -1.59,-2.68 -2.39,-5.65 -2.39,-8.89l0 -13.71zm79.6 -43.33l8.65 4.16 -9.36 15.79 -5.39 -2.5 6.1 -17.45zm-23.21 35.66c0,-2.74 0.97,-5.08 2.95,-7.02 1.97,-1.94 4.34,-2.91 7.12,-2.91l17.25 0c3.25,0 6.22,0.79 8.9,2.39 2.68,1.59 4.81,3.73 6.41,6.41 1.58,2.68 2.39,5.64 2.39,8.88l0 31.32 -10 0 0 -31.18c0,-2.19 -0.74,-4.08 -2.24,-5.62 -1.48,-1.54 -3.3,-2.32 -5.46,-2.32l-17.35 0 0 39.12 -9.97 0 0 -39.07zm55.88 3.83c0,-2.55 0.65,-4.86 1.92,-6.95 1.27,-2.07 2.99,-3.74 5.1,-4.97 2.13,-1.22 4.49,-1.84 7.07,-1.84l28.77 0 0 9.98 -28.77 0c-1.13,0 -2.1,0.37 -2.91,1.12 -0.8,0.74 -1.2,1.63 -1.2,2.66l0 1.19c0,1.06 0.4,1.99 1.2,2.73 0.81,0.76 1.78,1.14 2.91,1.14l17.89 0c2.58,0 4.94,0.61 7.07,1.88 2.13,1.24 3.83,2.9 5.08,4.99 1.27,2.08 1.9,4.39 1.9,6.93l0 2.58c0,2.51 -0.63,4.82 -1.9,6.92 -1.25,2.1 -2.95,3.77 -5.08,5 -2.13,1.25 -4.49,1.88 -7.07,1.88l-29.76 0 0 -9.98 29.76 0c1.13,0 2.09,-0.38 2.91,-1.14 0.8,-0.74 1.21,-1.67 1.21,-2.73l0 -2.47c0,-1.1 -0.41,-2.03 -1.21,-2.79 -0.82,-0.75 -1.78,-1.14 -2.91,-1.14l-17.89 0c-2.58,0 -4.94,-0.61 -7.07,-1.87 -2.11,-1.24 -3.83,-2.91 -5.1,-5 -1.27,-2.11 -1.92,-4.41 -1.92,-6.93l0 -1.19zm56.91 -32.01l9.98 0 0 37.03 3.35 0 17.72 -18.78 12.97 0 -22.37 23.74 24.36 25.26 -13.95 0 -19.63 -20.25 -2.45 0 0 20.25 -9.98 0 0 -67.25zm53.11 36.88l29.65 0 0 8.33 -29.65 0 0 -8.33zm41.94 -36.88l35.56 0c3.07,0 5.84,0.74 8.35,2.24 2.52,1.5 4.52,3.48 6,5.98 1.51,2.49 2.27,5.27 2.27,8.32l0 6.72c0,3 -0.76,5.73 -2.27,8.21 -1.48,2.47 -3.48,4.44 -6,5.91 -2.51,1.47 -5.28,2.2 -8.35,2.2l-19.9 0 0 -9.93 19.9 0c1.88,0 3.45,-0.63 4.74,-1.89 1.29,-1.26 1.93,-2.81 1.93,-4.64l0 -6.58c0,-1.83 -0.64,-3.39 -1.93,-4.68 -1.29,-1.29 -2.86,-1.93 -4.74,-1.93l-25.59 0 0 57.32 -9.97 0 0 -67.25zm84.19 -7.48l8.65 4.16 -9.36 15.79 -5.39 -2.5 6.1 -17.45zm-23.75 43.41c0,-3.24 0.81,-6.2 2.39,-8.88 1.6,-2.68 3.72,-4.82 6.41,-6.41 2.68,-1.6 5.65,-2.39 8.89,-2.39l10.69 0c3.24,0 6.22,0.79 8.9,2.39 2.67,1.59 4.8,3.73 6.4,6.41 1.59,2.68 2.39,5.64 2.39,8.88l0 13.63c0,3.24 -0.8,6.21 -2.39,8.89 -1.6,2.68 -3.73,4.81 -6.4,6.41 -2.68,1.6 -5.66,2.39 -8.9,2.39l-10.69 0c-3.24,0 -6.21,-0.79 -8.89,-2.39 -2.69,-1.6 -4.81,-3.73 -6.41,-6.41 -1.58,-2.68 -2.39,-5.65 -2.39,-8.89l0 -13.63zm9.98 13.52c0,2.16 0.76,4 2.28,5.52 1.51,1.52 3.32,2.3 5.43,2.3l10.69 0c2.14,0 3.97,-0.78 5.46,-2.3 1.5,-1.52 2.26,-3.36 2.26,-5.52l0 -13.42c0,-2.13 -0.76,-3.97 -2.26,-5.51 -1.49,-1.53 -3.32,-2.29 -5.46,-2.29l-10.69 0c-2.11,0 -3.92,0.76 -5.43,2.29 -1.52,1.54 -2.28,3.38 -2.28,5.51l0 13.42zm52.17 -16.96l0 -32.49 9.98 0 0 26.71 5.49 -3.17 3.5 6.01 -8.99 5.2 0 32.5 -9.98 0 0 -26.72 -5.49 3.11 -3.5 -6 8.99 -5.15zm26.55 -4.31c0,-2.74 0.98,-5.08 2.95,-7.02 1.97,-1.94 4.34,-2.91 7.12,-2.91l17.25 0c3.25,0 6.22,0.79 8.9,2.39 2.68,1.59 4.82,3.73 6.41,6.41 1.58,2.68 2.39,5.64 2.39,8.88l0 31.32 -10 0 0 -31.18c0,-2.19 -0.74,-4.08 -2.24,-5.62 -1.48,-1.54 -3.3,-2.32 -5.46,-2.32l-17.35 0 0 39.12 -9.97 0 0 -39.07zm55.88 7.75c0,-3.24 0.81,-6.2 2.39,-8.88 1.6,-2.68 3.72,-4.82 6.41,-6.41 2.68,-1.6 5.65,-2.39 8.89,-2.39l10.69 0c3.24,0 6.22,0.79 8.9,2.39 2.67,1.59 4.8,3.73 6.4,6.41 1.59,2.68 2.39,5.64 2.39,8.88l0 13.63c0,3.24 -0.8,6.21 -2.39,8.89 -1.6,2.68 -3.73,4.81 -6.4,6.41 -2.68,1.6 -5.66,2.39 -8.9,2.39l-10.69 0c-3.24,0 -6.21,-0.79 -8.89,-2.39 -2.69,-1.6 -4.81,-3.73 -6.41,-6.41 -1.58,-2.68 -2.39,-5.65 -2.39,-8.89l0 -13.63zm9.98 13.52c0,2.16 0.76,4 2.28,5.52 1.51,1.52 3.32,2.3 5.43,2.3l10.69 0c2.14,0 3.97,-0.78 5.46,-2.3 1.5,-1.52 2.26,-3.36 2.26,-5.52l0 -13.42c0,-2.13 -0.76,-3.97 -2.26,-5.51 -1.49,-1.53 -3.32,-2.29 -5.46,-2.29l-10.69 0c-2.11,0 -3.92,0.76 -5.43,2.29 -1.52,1.54 -2.28,3.38 -2.28,5.51l0 13.42zm46.49 -13.52c0,-3.24 0.82,-6.2 2.47,-8.88 1.63,-2.68 3.83,-4.82 6.57,-6.41 2.75,-1.6 5.78,-2.39 9.12,-2.39l27.58 0 0 9.98 -27.58 0c-2.22,0 -4.17,0.76 -5.76,2.29 -1.62,1.54 -2.42,3.39 -2.42,5.55l0 13.3c0,2.17 0.8,4.04 2.39,5.58 1.6,1.54 3.53,2.32 5.79,2.32l27.58 0 0 9.98 -27.58 0c-3.34,0 -6.37,-0.81 -9.12,-2.41 -2.74,-1.61 -4.94,-3.76 -6.57,-6.45 -1.65,-2.7 -2.47,-5.67 -2.47,-8.94l0 -13.52zm92.2 -17.68l5.63 32.45 12.11 -20.68 9.42 0 12.1 20.68 5.62 -32.45 9.97 0 -8.45 49 -8.75 0 -15.18 -25.68 -15.24 25.68 -8.75 0 -8.51 -49 10.03 0zm91.76 0.66c0,-3.5 0.91,-6.68 2.71,-9.52 1.82,-2.86 4.23,-5.13 7.27,-6.84 3.02,-1.7 6.38,-2.55 10.08,-2.55l31.81 0 0 9.93 -31.81 0c-2.79,0 -5.16,0.87 -7.12,2.62 -1.97,1.75 -2.96,3.86 -2.96,6.32l0 29.5c0,2.46 0.99,4.57 2.96,6.32 1.96,1.76 4.33,2.63 7.12,2.63l15.73 0c2.81,0 5.2,-0.87 7.16,-2.63 1.95,-1.75 2.92,-3.86 2.92,-6.32l0 -8.79 -18.24 0 0 -9.93 28.23 0 0 18.68c0,3.47 -0.9,6.63 -2.7,9.51 -1.8,2.87 -4.23,5.14 -7.27,6.85 -3.04,1.71 -6.4,2.56 -10.1,2.56l-15.73 0c-3.7,0 -7.06,-0.85 -10.08,-2.56 -3.04,-1.71 -5.45,-3.98 -7.27,-6.85 -1.8,-2.88 -2.71,-6.04 -2.71,-9.51l0 -29.42zm66.73 17.02c0,-3.24 0.8,-6.2 2.38,-8.88 1.61,-2.68 3.73,-4.82 6.41,-6.41 2.68,-1.6 5.66,-2.39 8.9,-2.39l11.68 0 0 9.98 -11.68 0c-2.12,0 -3.92,0.76 -5.44,2.29 -1.52,1.54 -2.28,3.38 -2.28,5.51l0 13.53c0,2.11 0.76,3.91 2.28,5.43 1.52,1.52 3.32,2.28 5.44,2.28l17.35 0 0 -57.27 9.98 0 0 57.27c0,2.75 -0.97,5.09 -2.92,7.04 -1.95,1.95 -4.31,2.94 -7.06,2.94l-17.35 0c-3.24,0 -6.22,-0.79 -8.9,-2.39 -2.68,-1.6 -4.8,-3.72 -6.41,-6.38 -1.58,-2.68 -2.38,-5.62 -2.38,-8.83l0 -13.72zm55.9 -0.08c0,-3.26 0.8,-6.2 2.39,-8.85 1.6,-2.65 3.72,-4.77 6.4,-6.36 2.69,-1.6 5.66,-2.39 8.9,-2.39l27.33 0 0 49 -9.98 0 0 -39.02 -17.35 0c-2.11,0 -3.92,0.74 -5.44,2.24 -1.52,1.5 -2.28,3.33 -2.28,5.46l0 13.52c0,2.16 0.76,4 2.28,5.52 1.52,1.52 3.33,2.3 5.44,2.3l11.69 0 0 9.98 -11.69 0c-3.24,0 -6.21,-0.79 -8.9,-2.39 -2.68,-1.6 -4.8,-3.73 -6.4,-6.41 -1.59,-2.68 -2.39,-5.65 -2.39,-8.89l0 -13.71zm79.6 -43.33l8.65 4.16 -9.36 15.79 -5.39 -2.5 6.1 -17.45zm-23.21 35.66c0,-2.74 0.98,-5.08 2.95,-7.02 1.97,-1.94 4.34,-2.91 7.12,-2.91l17.25 0c3.25,0 6.22,0.79 8.9,2.39 2.68,1.59 4.82,3.73 6.41,6.41 1.58,2.68 2.39,5.64 2.39,8.88l0 31.32 -10 0 0 -31.18c0,-2.19 -0.74,-4.08 -2.24,-5.62 -1.48,-1.54 -3.3,-2.32 -5.46,-2.32l-17.35 0 0 39.12 -9.97 0 0 -39.07zm55.88 3.83c0,-2.55 0.65,-4.86 1.92,-6.95 1.27,-2.07 2.99,-3.74 5.1,-4.97 2.13,-1.22 4.49,-1.84 7.08,-1.84l28.76 0 0 9.98 -28.76 0c-1.14,0 -2.11,0.37 -2.92,1.12 -0.8,0.74 -1.2,1.63 -1.2,2.66l0 1.19c0,1.06 0.4,1.99 1.2,2.73 0.81,0.76 1.78,1.14 2.92,1.14l17.88 0c2.58,0 4.94,0.61 7.07,1.88 2.13,1.24 3.83,2.9 5.08,4.99 1.27,2.08 1.9,4.39 1.9,6.93l0 2.58c0,2.51 -0.63,4.82 -1.9,6.92 -1.25,2.1 -2.95,3.77 -5.08,5 -2.13,1.25 -4.49,1.88 -7.07,1.88l-29.76 0 0 -9.98 29.76 0c1.13,0 2.09,-0.38 2.91,-1.14 0.8,-0.74 1.21,-1.67 1.21,-2.73l0 -2.47c0,-1.1 -0.41,-2.03 -1.21,-2.79 -0.82,-0.75 -1.78,-1.14 -2.91,-1.14l-17.88 0c-2.59,0 -4.95,-0.61 -7.08,-1.87 -2.11,-1.24 -3.83,-2.91 -5.1,-5 -1.27,-2.11 -1.92,-4.41 -1.92,-6.93l0 -1.19zm56.91 -32.01l9.98 0 0 37.03 3.36 0 17.71 -18.78 12.97 0 -22.37 23.74 24.36 25.26 -13.95 0 -19.63 -20.25 -2.45 0 0 20.25 -9.98 0 0 -67.25zm53.11 18.25l9.98 0 0 31.18c0,2.19 0.76,4.06 2.26,5.62 1.52,1.54 3.32,2.32 5.43,2.32l17.36 0 0 -39.12 9.99 0 0 39.07c0,2.74 -0.98,5.09 -2.94,7.03 -1.95,1.93 -4.33,2.9 -7.13,2.9l-17.28 0c-3.24,0 -6.19,-0.79 -8.89,-2.39 -2.67,-1.6 -4.81,-3.73 -6.39,-6.41 -1.6,-2.68 -2.39,-5.65 -2.39,-8.89l0 -31.31zm91.6 -18.25l19.68 55.14 19.63 -55.14 10.63 0 -24.07 67.25 -12.44 0 -24.08 -67.25 10.65 0zm58.45 0l9.97 0 0 67.25 -9.97 0 0 -67.25zm23.21 0l9.97 0 0 67.25 -9.97 0 0 -67.25zm23.21 0l9.97 0 0 67.25 -9.97 0 0 -67.25zm58.31 0l8.79 50.7 12.11 -22.05 9.41 0 12.11 22.05 8.8 -50.7 9.98 0 -11.68 67.25 -8.99 0 -14.94 -27.06 -14.9 27.06 -9.03 0 -11.69 -67.25 10.03 0zm77.94 18.25l12.71 33.95 13.02 -33.95 11.01 0 -26.01 67.45 -10.93 0 7.62 -20.06 -18.02 -47.39 10.6 0zm43.35 17.68c0,-3.24 0.81,-6.2 2.39,-8.88 1.6,-2.68 3.73,-4.82 6.41,-6.41 2.68,-1.6 5.66,-2.39 8.9,-2.39l11.68 0 0 9.98 -11.68 0c-2.12,0 -3.92,0.76 -5.44,2.29 -1.52,1.54 -2.28,3.38 -2.28,5.51l0 13.53c0,2.11 0.76,3.91 2.28,5.43 1.52,1.52 3.32,2.28 5.44,2.28l17.35 0 0 -57.27 9.97 0 0 57.27c0,2.75 -0.97,5.09 -2.92,7.04 -1.94,1.95 -4.31,2.94 -7.05,2.94l-17.35 0c-3.24,0 -6.22,-0.79 -8.9,-2.39 -2.68,-1.6 -4.81,-3.72 -6.41,-6.38 -1.58,-2.68 -2.39,-5.62 -2.39,-8.83l0 -13.72zm55.91 23.69l29.46 -31.44 -29.46 0 0 -9.93 45.16 0 0 7.47 -29.6 31.6 29.6 0 0 9.93 -45.16 0 0 -7.63zm54.9 -54.7c0,-1.71 0.6,-3.17 1.8,-4.36 1.2,-1.2 2.65,-1.79 4.35,-1.79 1.71,0 3.15,0.59 4.36,1.79 1.19,1.19 1.79,2.65 1.79,4.36 0,1.69 -0.6,3.15 -1.79,4.34 -1.21,1.2 -2.65,1.81 -4.36,1.81 -1.7,0 -3.15,-0.61 -4.35,-1.81 -1.2,-1.19 -1.8,-2.65 -1.8,-4.34zm1.15 13.33l10.02 0 0 49 -10.02 0 0 -49zm20.88 17.6c0,-3.26 0.81,-6.2 2.39,-8.85 1.6,-2.65 3.73,-4.77 6.41,-6.36 2.68,-1.6 5.65,-2.39 8.89,-2.39l27.33 0 0 49 -9.97 0 0 -39.02 -17.36 0c-2.11,0 -3.91,0.74 -5.43,2.24 -1.52,1.5 -2.28,3.33 -2.28,5.46l0 13.52c0,2.16 0.76,4 2.28,5.52 1.52,1.52 3.32,2.3 5.43,2.3l11.69 0 0 9.98 -11.69 0c-3.24,0 -6.21,-0.79 -8.89,-2.39 -2.68,-1.6 -4.81,-3.73 -6.41,-6.41 -1.58,-2.68 -2.39,-5.65 -2.39,-8.89l0 -13.71zm61.59 -3.36l0 -32.49 9.97 0 0 26.71 5.5 -3.17 3.49 6.01 -8.99 5.2 0 32.5 -9.97 0 0 -26.72 -5.49 3.11 -3.51 -6 9 -5.15zm54.92 -13.58c0,-3.5 0.91,-6.68 2.71,-9.52 1.81,-2.86 4.23,-5.13 7.27,-6.84 3.02,-1.7 6.38,-2.55 10.07,-2.55l31.82 0 0 9.93 -31.82 0c-2.78,0 -5.15,0.87 -7.12,2.62 -1.96,1.75 -2.95,3.86 -2.95,6.32l0 29.5c0,2.46 0.99,4.57 2.95,6.32 1.97,1.76 4.34,2.63 7.12,2.63l15.74 0c2.81,0 5.2,-0.87 7.15,-2.63 1.95,-1.75 2.92,-3.86 2.92,-6.32l0 -8.79 -18.24 0 0 -9.93 28.24 0 0 18.68c0,3.47 -0.91,6.63 -2.7,9.51 -1.8,2.87 -4.23,5.14 -7.27,6.85 -3.05,1.71 -6.4,2.56 -10.1,2.56l-15.74 0c-3.69,0 -7.05,-0.85 -10.07,-2.56 -3.04,-1.71 -5.46,-3.98 -7.27,-6.85 -1.8,-2.88 -2.71,-6.04 -2.71,-9.51l0 -29.42zm66.72 17.02c0,-3.24 0.81,-6.2 2.39,-8.88 1.6,-2.68 3.73,-4.82 6.41,-6.41 2.68,-1.6 5.65,-2.39 8.89,-2.39l10.69 0c3.24,0 6.22,0.79 8.9,2.39 2.67,1.59 4.81,3.73 6.41,6.41 1.58,2.68 2.39,5.64 2.39,8.88l0 13.63c0,3.24 -0.81,6.21 -2.39,8.89 -1.6,2.68 -3.74,4.81 -6.41,6.41 -2.68,1.6 -5.66,2.39 -8.9,2.39l-10.69 0c-3.24,0 -6.21,-0.79 -8.89,-2.39 -2.68,-1.6 -4.81,-3.73 -6.41,-6.41 -1.58,-2.68 -2.39,-5.65 -2.39,-8.89l0 -13.63zm9.98 13.52c0,2.16 0.76,4 2.28,5.52 1.52,1.52 3.32,2.3 5.43,2.3l10.69 0c2.15,0 3.98,-0.78 5.46,-2.3 1.5,-1.52 2.26,-3.36 2.26,-5.52l0 -13.42c0,-2.13 -0.76,-3.97 -2.26,-5.51 -1.48,-1.53 -3.31,-2.29 -5.46,-2.29l-10.69 0c-2.11,0 -3.91,0.76 -5.43,2.29 -1.52,1.54 -2.28,3.38 -2.28,5.51l0 13.42zm46.49 -17.44c0,-2.55 0.65,-4.86 1.93,-6.95 1.27,-2.07 2.98,-3.74 5.09,-4.97 2.14,-1.22 4.5,-1.84 7.08,-1.84l28.76 0 0 9.98 -28.76 0c-1.14,0 -2.11,0.37 -2.91,1.12 -0.81,0.74 -1.21,1.63 -1.21,2.66l0 1.19c0,1.06 0.4,1.99 1.21,2.73 0.8,0.76 1.77,1.14 2.91,1.14l17.88 0c2.58,0 4.94,0.61 7.08,1.88 2.12,1.24 3.82,2.9 5.08,4.99 1.26,2.08 1.89,4.39 1.89,6.93l0 2.58c0,2.51 -0.63,4.82 -1.89,6.92 -1.26,2.1 -2.96,3.77 -5.08,5 -2.14,1.25 -4.5,1.88 -7.08,1.88l-29.75 0 0 -9.98 29.75 0c1.14,0 2.1,-0.38 2.91,-1.14 0.81,-0.74 1.21,-1.67 1.21,-2.73l0 -2.47c0,-1.1 -0.4,-2.03 -1.21,-2.79 -0.81,-0.75 -1.77,-1.14 -2.91,-1.14l-17.88 0c-2.58,0 -4.94,-0.61 -7.08,-1.87 -2.11,-1.24 -3.82,-2.91 -5.09,-5 -1.28,-2.11 -1.93,-4.41 -1.93,-6.93l0 -1.19zm56.43 -3.78c0,-2.75 0.99,-5.09 2.94,-7.06 1.94,-1.95 4.31,-2.92 7.03,-2.92l17.37 0c3.24,0 6.2,0.79 8.88,2.39 2.68,1.59 4.83,3.71 6.41,6.36 1.6,2.65 2.39,5.59 2.39,8.85l0 13.71c0,3.24 -0.79,6.21 -2.39,8.89 -1.58,2.68 -3.73,4.81 -6.41,6.41 -2.68,1.6 -5.64,2.39 -8.88,2.39l-11.68 0 0 -9.98 11.68 0c2.14,0 3.96,-0.78 5.46,-2.3 1.5,-1.52 2.24,-3.36 2.24,-5.52l0 -13.52c0,-2.13 -0.74,-3.96 -2.24,-5.46 -1.5,-1.5 -3.32,-2.24 -5.46,-2.24l-17.37 0 0 57.28 -9.97 0 0 -57.28zm55.9 7.7c0,-3.24 0.81,-6.2 2.39,-8.88 1.6,-2.68 3.72,-4.82 6.41,-6.41 2.68,-1.6 5.65,-2.39 8.89,-2.39l10.69 0c3.24,0 6.22,0.79 8.9,2.39 2.67,1.59 4.8,3.73 6.4,6.41 1.59,2.68 2.39,5.64 2.39,8.88l0 13.63c0,3.24 -0.8,6.21 -2.39,8.89 -1.6,2.68 -3.73,4.81 -6.4,6.41 -2.68,1.6 -5.66,2.39 -8.9,2.39l-10.69 0c-3.24,0 -6.21,-0.79 -8.89,-2.39 -2.69,-1.6 -4.81,-3.73 -6.41,-6.41 -1.58,-2.68 -2.39,-5.65 -2.39,-8.89l0 -13.63zm9.98 13.52c0,2.16 0.76,4 2.28,5.52 1.51,1.52 3.32,2.3 5.43,2.3l10.69 0c2.14,0 3.97,-0.78 5.46,-2.3 1.5,-1.52 2.26,-3.36 2.26,-5.52l0 -13.42c0,-2.13 -0.76,-3.97 -2.26,-5.51 -1.49,-1.53 -3.32,-2.29 -5.46,-2.29l-10.69 0c-2.11,0 -3.92,0.76 -5.43,2.29 -1.52,1.54 -2.28,3.38 -2.28,5.51l0 13.42zm46.49 -13.52c0,-3.24 0.81,-6.2 2.39,-8.88 1.6,-2.68 3.72,-4.82 6.41,-6.41 2.68,-1.6 5.65,-2.39 8.89,-2.39l11.69 0 0 9.98 -11.69 0c-2.11,0 -3.91,0.76 -5.43,2.29 -1.52,1.54 -2.28,3.38 -2.28,5.51l0 13.53c0,2.11 0.76,3.91 2.28,5.43 1.52,1.52 3.32,2.28 5.43,2.28l17.36 0 0 -57.27 9.97 0 0 57.27c0,2.75 -0.97,5.09 -2.92,7.04 -1.95,1.95 -4.31,2.94 -7.05,2.94l-17.36 0c-3.24,0 -6.21,-0.79 -8.89,-2.39 -2.69,-1.6 -4.81,-3.72 -6.41,-6.38 -1.58,-2.68 -2.39,-5.62 -2.39,-8.83l0 -13.72zm55.9 -0.08c0,-3.26 0.81,-6.2 2.39,-8.85 1.6,-2.65 3.73,-4.77 6.41,-6.36 2.68,-1.6 5.66,-2.39 8.9,-2.39l27.32 0 0 49 -9.97 0 0 -39.02 -17.35 0c-2.12,0 -3.92,0.74 -5.44,2.24 -1.52,1.5 -2.28,3.33 -2.28,5.46l0 13.52c0,2.16 0.76,4 2.28,5.52 1.52,1.52 3.32,2.3 5.44,2.3l11.68 0 0 9.98 -11.68 0c-3.24,0 -6.22,-0.79 -8.9,-2.39 -2.68,-1.6 -4.81,-3.73 -6.41,-6.41 -1.58,-2.68 -2.39,-5.65 -2.39,-8.89l0 -13.71z"/>
  <path class="fil13" d="M6197.23 1662.63c0,-2.52 0.63,-4.81 1.91,-6.9 1.27,-2.07 2.98,-3.74 5.11,-4.97 2.12,-1.22 4.48,-1.84 7.08,-1.84l10.91 0 0 9.93 -10.91 0c-1.16,0 -2.12,0.39 -2.93,1.17 -0.79,0.77 -1.19,1.7 -1.19,2.8l0 35.1 -9.98 0 0 -35.29zm-706.92 145.79c0,-1.7 0.6,-3.16 1.8,-4.36 1.2,-1.2 2.65,-1.8 4.37,-1.8 1.73,0 3.22,0.59 4.39,1.77 1.18,1.19 1.78,2.65 1.78,4.39 0,1.75 -0.61,3.21 -1.78,4.39 -1.18,1.19 -2.66,1.78 -4.39,1.78 -1.72,0 -3.17,-0.6 -4.37,-1.8 -1.2,-1.2 -1.8,-2.65 -1.8,-4.37zm-22.36 -56.84c0,-1.72 0.61,-3.18 1.82,-4.38 1.19,-1.18 2.65,-1.79 4.35,-1.79 1.72,0 3.17,0.6 4.38,1.79 1.2,1.19 1.79,2.66 1.79,4.38 0,1.7 -0.59,3.17 -1.79,4.36 -1.21,1.19 -2.66,1.81 -4.38,1.81 -1.7,0 -3.16,-0.63 -4.35,-1.81 -1.21,-1.2 -1.82,-2.66 -1.82,-4.36zm1.15 13.38l10.06 0 0 49.16 -10.06 0 0 -49.16zm-56.82 17.74c0,-3.26 0.83,-6.22 2.47,-8.91 1.64,-2.68 3.85,-4.84 6.6,-6.43 2.75,-1.59 5.8,-2.4 9.15,-2.4l27.67 0 0 10.01 -27.67 0c-2.23,0 -4.18,0.77 -5.78,2.3 -1.61,1.54 -2.43,3.41 -2.43,5.57l0 13.35c0,2.16 0.81,4.06 2.39,5.59 1.6,1.55 3.55,2.33 5.82,2.33l27.67 0 0 10.01 -27.67 0c-3.34,0 -6.41,-0.81 -9.15,-2.41 -2.76,-1.61 -4.96,-3.79 -6.6,-6.48 -1.64,-2.71 -2.47,-5.69 -2.47,-8.96l0 -13.57zm-32.83 -43.56l8.68 4.18 -9.4 15.84 -5.41 -2.51 6.13 -17.51zm-23.78 39.62c0,-2.56 0.64,-4.88 1.92,-6.97 1.28,-2.09 3,-3.76 5.12,-4.99 2.13,-1.23 4.51,-1.84 7.1,-1.84l28.86 0 0 10.01 -28.86 0c-1.13,0 -2.11,0.38 -2.92,1.12 -0.8,0.74 -1.21,1.64 -1.21,2.67l0 1.2c0,1.06 0.41,1.99 1.21,2.74 0.81,0.75 1.78,1.15 2.92,1.15l17.94 0c2.6,0 4.96,0.62 7.1,1.87 2.13,1.25 3.84,2.93 5.1,5.01 1.26,2.09 1.9,4.42 1.9,6.96l0 2.58c0,2.52 -0.64,4.84 -1.9,6.95 -1.26,2.1 -2.96,3.77 -5.1,5.02 -2.14,1.25 -4.51,1.88 -7.1,1.88l-29.85 0 0 -10.01 29.85 0c1.14,0 2.11,-0.4 2.92,-1.15 0.8,-0.75 1.22,-1.67 1.22,-2.74l0 -2.48c0,-1.1 -0.41,-2.05 -1.22,-2.8 -0.8,-0.74 -1.79,-1.13 -2.92,-1.13l-17.94 0c-2.58,0 -4.97,-0.62 -7.1,-1.88 -2.12,-1.24 -3.85,-2.92 -5.12,-5.02 -1.28,-2.1 -1.92,-4.43 -1.92,-6.95l0 -1.2zm-56.66 3.94c0,-3.26 0.8,-6.23 2.39,-8.91 1.59,-2.69 3.76,-4.85 6.43,-6.43 2.69,-1.6 5.67,-2.4 8.93,-2.4l10.72 0c3.26,0 6.24,0.81 8.93,2.4 2.68,1.59 4.83,3.74 6.43,6.43 1.59,2.68 2.4,5.66 2.4,8.91l0 13.67c0,3.24 -0.81,6.24 -2.4,8.92 -1.6,2.69 -3.75,4.83 -6.43,6.43 -2.69,1.6 -5.68,2.4 -8.93,2.4l-10.72 0c-3.25,0 -6.24,-0.8 -8.93,-2.4 -2.67,-1.6 -4.84,-3.74 -6.43,-6.43 -1.59,-2.68 -2.39,-5.67 -2.39,-8.92l0 -13.67zm10.01 13.57c0,2.13 0.76,4.01 2.28,5.54 1.51,1.52 3.34,2.3 5.46,2.3l10.72 0c2.16,0 4,-0.78 5.48,-2.3 1.5,-1.53 2.27,-3.39 2.27,-5.54l0 -13.48c0,-2.14 -0.78,-3.98 -2.27,-5.52 -1.49,-1.53 -3.33,-2.3 -5.48,-2.3l-10.72 0c-2.11,0 -3.94,0.76 -5.46,2.3 -1.52,1.54 -2.28,3.39 -2.28,5.52l0 13.48zm-36.16 -17.03l0 -32.6 10.01 0 0 26.81 5.51 -3.18 3.51 6.03 -9.02 5.21 0 32.61 -10.01 0 0 -26.81 -5.51 3.13 -3.51 -6.03 9.02 -5.17zm-61.79 3.37c0,-3.27 0.81,-6.23 2.39,-8.87 1.6,-2.66 3.76,-4.8 6.43,-6.38 2.69,-1.6 5.67,-2.4 8.93,-2.4l27.42 0 0 49.16 -10.01 0 0 -39.15 -17.41 0c-2.11,0 -3.94,0.74 -5.46,2.25 -1.52,1.51 -2.28,3.35 -2.28,5.48l0 13.57c0,2.14 0.76,4.01 2.28,5.54 1.51,1.52 3.34,2.3 5.46,2.3l11.73 0 0 10.01 -11.73 0c-3.25,0 -6.24,-0.8 -8.93,-2.4 -2.67,-1.6 -4.84,-3.74 -6.43,-6.43 -1.59,-2.68 -2.39,-5.67 -2.39,-8.92l0 -13.76zm-56.34 0.09c0,-3.26 0.83,-6.22 2.47,-8.91 1.64,-2.68 3.85,-4.84 6.6,-6.43 2.75,-1.59 5.8,-2.4 9.15,-2.4l27.67 0 0 10.01 -27.67 0c-2.23,0 -4.18,0.77 -5.78,2.3 -1.61,1.54 -2.43,3.41 -2.43,5.57l0 13.35c0,2.16 0.81,4.06 2.39,5.59 1.6,1.55 3.55,2.33 5.82,2.33l27.67 0 0 10.01 -27.67 0c-3.34,0 -6.41,-0.81 -9.15,-2.41 -2.76,-1.61 -4.96,-3.79 -6.6,-6.48 -1.64,-2.71 -2.47,-5.69 -2.47,-8.96l0 -13.57zm-91.59 -17.74l5.65 32.56 12.15 -20.75 9.45 0 12.14 20.75 5.64 -32.56 10.01 0 -8.49 49.16 -8.78 0 -15.22 -25.77 -15.29 25.77 -8.78 0 -8.54 -49.16 10.06 0zm-78.25 0l12.76 34.06 13.06 -34.06 11.04 0 -26.09 67.67 -10.97 0 7.65 -20.13 -18.08 -47.54 10.63 0zm-63.41 9.96c0,-2.75 0.99,-5.11 2.97,-7.05 1.96,-1.94 4.35,-2.91 7.14,-2.91l17.32 0c3.25,0 6.23,0.81 8.92,2.4 2.68,1.59 4.84,3.74 6.43,6.43 1.59,2.68 2.4,5.66 2.4,8.91l0 31.42 -10.03 0 0 -31.28c0,-2.2 -0.75,-4.1 -2.25,-5.64 -1.49,-1.54 -3.33,-2.33 -5.47,-2.33l-17.42 0 0 39.25 -10.01 0 0 -39.2zm-57.14 7.78c0,-3.26 0.8,-6.23 2.39,-8.91 1.59,-2.69 3.76,-4.85 6.43,-6.43 2.69,-1.6 5.67,-2.4 8.93,-2.4l10.72 0c3.26,0 6.24,0.81 8.93,2.4 2.68,1.59 4.83,3.74 6.43,6.43 1.59,2.68 2.4,5.66 2.4,8.91l0 13.67c0,3.24 -0.81,6.24 -2.4,8.92 -1.6,2.69 -3.75,4.83 -6.43,6.43 -2.69,1.6 -5.68,2.4 -8.93,2.4l-10.72 0c-3.25,0 -6.24,-0.8 -8.93,-2.4 -2.67,-1.6 -4.84,-3.74 -6.43,-6.43 -1.59,-2.68 -2.39,-5.67 -2.39,-8.92l0 -13.67zm10.01 13.57c0,2.13 0.76,4.01 2.28,5.54 1.51,1.52 3.34,2.3 5.46,2.3l10.72 0c2.16,0 4,-0.78 5.48,-2.3 1.5,-1.53 2.27,-3.39 2.27,-5.54l0 -13.48c0,-2.14 -0.78,-3.98 -2.27,-5.52 -1.49,-1.53 -3.33,-2.3 -5.48,-2.3l-10.72 0c-2.11,0 -3.94,0.76 -5.46,2.3 -1.52,1.54 -2.28,3.39 -2.28,5.52l0 13.48zm-66.35 -13.57c0,-3.26 0.83,-6.22 2.47,-8.91 1.64,-2.68 3.85,-4.84 6.6,-6.43 2.75,-1.59 5.8,-2.4 9.15,-2.4l27.67 0 0 10.01 -27.67 0c-2.23,0 -4.18,0.77 -5.78,2.3 -1.61,1.54 -2.43,3.41 -2.43,5.57l0 13.35c0,2.16 0.81,4.06 2.39,5.59 1.6,1.55 3.55,2.33 5.82,2.33l27.67 0 0 10.01 -27.67 0c-3.34,0 -6.41,-0.81 -9.15,-2.41 -2.76,-1.61 -4.96,-3.79 -6.6,-6.48 -1.64,-2.71 -2.47,-5.69 -2.47,-8.96l0 -13.57zm-56.09 -0.09c0,-3.27 0.81,-6.23 2.39,-8.87 1.6,-2.66 3.76,-4.8 6.43,-6.38 2.69,-1.6 5.67,-2.4 8.93,-2.4l27.42 0 0 49.16 -10.01 0 0 -39.15 -17.41 0c-2.11,0 -3.94,0.74 -5.46,2.25 -1.52,1.51 -2.28,3.35 -2.28,5.48l0 13.57c0,2.14 0.76,4.01 2.28,5.54 1.51,1.52 3.34,2.3 5.46,2.3l11.73 0 0 10.01 -11.73 0c-3.25,0 -6.24,-0.8 -8.93,-2.4 -2.67,-1.6 -4.84,-3.74 -6.43,-6.43 -1.59,-2.68 -2.39,-5.67 -2.39,-8.92l0 -13.76zm-26.15 -3.37l0 -32.6 10.01 0 0 26.81 5.51 -3.18 3.51 6.03 -9.02 5.21 0 32.61 -10.01 0 0 -26.81 -5.51 3.13 -3.51 -6.03 9.02 -5.17zm-61.79 -4.27c0,-2.76 0.98,-5.11 2.94,-7.08 1.95,-1.96 4.33,-2.93 7.07,-2.93l17.43 0c3.25,0 6.22,0.81 8.9,2.4 2.68,1.59 4.85,3.73 6.44,6.38 1.59,2.65 2.39,5.61 2.39,8.87l0 13.76c0,3.24 -0.8,6.23 -2.39,8.92 -1.59,2.68 -3.76,4.83 -6.44,6.43 -2.68,1.6 -5.66,2.4 -8.9,2.4l-11.73 0 0 -10.01 11.73 0c2.13,0 3.97,-0.78 5.47,-2.3 1.51,-1.53 2.25,-3.39 2.25,-5.54l0 -13.57c0,-2.14 -0.74,-3.97 -2.25,-5.48 -1.51,-1.51 -3.35,-2.25 -5.47,-2.25l-17.43 0 0 57.47 -10.01 0 0 -57.47zm-56.66 7.73c0,-3.26 0.8,-6.23 2.39,-8.91 1.59,-2.69 3.76,-4.85 6.43,-6.43 2.69,-1.6 5.67,-2.4 8.93,-2.4l10.72 0c3.26,0 6.24,0.81 8.93,2.4 2.68,1.59 4.83,3.74 6.43,6.43 1.59,2.68 2.4,5.66 2.4,8.91l0 13.67c0,3.24 -0.81,6.24 -2.4,8.92 -1.6,2.69 -3.75,4.83 -6.43,6.43 -2.69,1.6 -5.68,2.4 -8.93,2.4l-10.72 0c-3.25,0 -6.24,-0.8 -8.93,-2.4 -2.67,-1.6 -4.84,-3.74 -6.43,-6.43 -1.59,-2.68 -2.39,-5.67 -2.39,-8.92l0 -13.67zm10.01 13.57c0,2.13 0.76,4.01 2.28,5.54 1.51,1.52 3.34,2.3 5.46,2.3l10.72 0c2.16,0 4,-0.78 5.48,-2.3 1.5,-1.53 2.27,-3.39 2.27,-5.54l0 -13.48c0,-2.14 -0.78,-3.98 -2.27,-5.52 -1.49,-1.53 -3.33,-2.3 -5.48,-2.3l-10.72 0c-2.11,0 -3.94,0.76 -5.46,2.3 -1.52,1.54 -2.28,3.39 -2.28,5.52l0 13.48zm-37.52 7.4l9.47 0 -7.11 17.56 -7.59 0 5.23 -17.56zm1650 -137.07c0,-3.24 0.83,-6.2 2.48,-8.88 1.63,-2.68 3.82,-4.82 6.57,-6.41 2.74,-1.6 5.77,-2.39 9.11,-2.39l27.58 0 0 9.98 -27.58 0c-2.22,0 -4.16,0.76 -5.75,2.29 -1.62,1.54 -2.43,3.39 -2.43,5.55l0 13.3c0,2.17 0.81,4.04 2.39,5.58 1.6,1.54 3.53,2.32 5.79,2.32l27.58 0 0 9.98 -27.58 0c-3.34,0 -6.37,-0.81 -9.11,-2.41 -2.75,-1.61 -4.94,-3.76 -6.57,-6.45 -1.65,-2.7 -2.48,-5.67 -2.48,-8.94l0 -13.52zm56.15 23.69l29.47 -31.44 -29.47 0 0 -9.93 45.17 0 0 7.47 -29.61 31.6 29.61 0 0 9.93 -45.17 0 0 -7.63zm63.81 -41.37l12.71 33.95 13.01 -33.95 11.01 0 -26.01 67.45 -10.93 0 7.63 -20.06 -18.02 -47.39 10.6 0zm71.73 -18.25l9.98 0 0 27.22 4.97 0 26.67 -27.22 13.77 0 -32.54 33.25 34.58 34 -13.95 0 -30.56 -30.03 -2.94 0 0 30.03 -9.98 0 0 -67.25zm65.93 0l35.56 0c3.07,0 5.84,0.74 8.35,2.24 2.52,1.5 4.52,3.48 6,5.98 1.51,2.49 2.27,5.27 2.27,8.32l0 6.72c0,3.07 -0.75,5.82 -2.22,8.27 -1.45,2.47 -3.45,4.43 -5.97,5.87 -2.52,1.45 -5.34,2.18 -8.47,2.18l20.06 27.67 -12.15 0 -20.08 -27.67 -7.69 0 0 -9.93 19.9 0c1.88,0 3.45,-0.65 4.74,-1.92 1.29,-1.28 1.93,-2.81 1.93,-4.61l0 -6.58c0,-1.83 -0.64,-3.39 -1.93,-4.68 -1.29,-1.29 -2.86,-1.93 -4.74,-1.93l-25.59 0 0 57.32 -9.97 0 0 -67.25zm64.09 16.27c0,-3 0.74,-5.73 2.24,-8.18 1.51,-2.47 3.53,-4.43 6.05,-5.9 2.54,-1.47 5.34,-2.19 8.41,-2.19l34.79 0 0 9.93 -34.79 0c-1.84,0 -3.41,0.64 -4.74,1.93 -1.32,1.29 -1.98,2.85 -1.98,4.68l0 4.63c0,1.68 0.66,3.12 1.98,4.31 1.33,1.19 2.9,1.8 4.74,1.8l21.41 0c3.09,0 5.9,0.74 8.41,2.2 2.54,1.46 4.54,3.45 6.04,5.92 1.51,2.47 2.25,5.21 2.25,8.2l0 7.33c0,3 -0.74,5.73 -2.25,8.22 -1.5,2.46 -3.5,4.44 -6.04,5.9 -2.51,1.47 -5.32,2.2 -8.41,2.2l-38.08 0 0 -9.98 38.08 0c1.86,0 3.44,-0.63 4.75,-1.88 1.31,-1.23 1.97,-2.74 1.97,-4.52l0 -7.23c0,-1.75 -0.66,-3.27 -1.97,-4.53 -1.31,-1.26 -2.89,-1.89 -4.75,-1.89l-21.41 0c-3.07,0 -5.87,-0.73 -8.41,-2.16 -2.52,-1.44 -4.54,-3.36 -6.05,-5.8 -1.5,-2.42 -2.24,-5.1 -2.24,-8.04l0 -4.95zm-3229.96 99.88l9.97 0 0 27.23 4.97 0 26.67 -27.23 13.78 0 -32.55 33.25 34.58 34 -13.95 0 -30.56 -30.03 -2.94 0 0 30.03 -9.97 0 0 -67.25zm60.73 35.85c0,-3.26 0.81,-6.2 2.39,-8.84 1.6,-2.66 3.73,-4.78 6.41,-6.36 2.68,-1.61 5.65,-2.39 8.89,-2.39l27.33 0 0 48.99 -9.97 0 0 -39.02 -17.36 0c-2.11,0 -3.91,0.74 -5.43,2.25 -1.52,1.5 -2.28,3.32 -2.28,5.45l0 13.53c0,2.15 0.76,3.99 2.28,5.52 1.52,1.52 3.32,2.29 5.43,2.29l11.69 0 0 9.98 -11.69 0c-3.24,0 -6.21,-0.79 -8.89,-2.39 -2.68,-1.6 -4.81,-3.72 -6.41,-6.41 -1.58,-2.68 -2.39,-5.65 -2.39,-8.89l0 -13.71zm55.91 -7.62c0,-2.74 0.98,-5.09 2.93,-7.05 1.95,-1.95 4.31,-2.92 7.04,-2.92l17.37 0c3.24,0 6.2,0.78 8.88,2.39 2.68,1.58 4.82,3.7 6.41,6.36 1.6,2.64 2.39,5.58 2.39,8.84l0 13.71c0,3.24 -0.79,6.21 -2.39,8.89 -1.59,2.69 -3.73,4.81 -6.41,6.41 -2.68,1.6 -5.64,2.39 -8.88,2.39l-11.69 0 0 -9.98 11.69 0c2.13,0 3.96,-0.77 5.46,-2.29 1.5,-1.53 2.24,-3.37 2.24,-5.52l0 -13.53c0,-2.13 -0.74,-3.95 -2.24,-5.45 -1.5,-1.51 -3.33,-2.25 -5.46,-2.25l-17.37 0 0 57.28 -9.97 0 0 -57.28zm55.24 -23.31c0,-1.71 0.59,-3.16 1.8,-4.35 1.2,-1.2 2.65,-1.8 4.35,-1.8 1.71,0 3.15,0.6 4.36,1.8 1.19,1.19 1.79,2.64 1.79,4.35 0,1.7 -0.6,3.15 -1.79,4.34 -1.21,1.2 -2.65,1.81 -4.36,1.81 -1.7,0 -3.15,-0.61 -4.35,-1.81 -1.21,-1.19 -1.8,-2.64 -1.8,-4.34zm1.14 13.34l10.02 0 0 48.99 -10.02 0 0 -48.99zm19 0l6.39 0 0 -18.26 9.98 0 0 18.26 15.08 0 0 9.97 -15.08 0 0 25.12c0,1.07 0.42,1.98 1.24,2.76 0.84,0.78 1.84,1.16 3,1.16l10.84 0 0 9.98 -10.96 0c-2.6,0 -4.96,-0.63 -7.08,-1.88 -2.12,-1.23 -3.83,-2.9 -5.11,-4.99 -1.28,-2.11 -1.91,-4.43 -1.91,-6.98l0 -25.17 -6.39 0 0 -9.97zm39.95 17.59c0,-3.26 0.81,-6.2 2.39,-8.84 1.6,-2.66 3.73,-4.78 6.41,-6.36 2.68,-1.61 5.66,-2.39 8.9,-2.39l27.32 0 0 48.99 -9.97 0 0 -39.02 -17.35 0c-2.12,0 -3.92,0.74 -5.44,2.25 -1.52,1.5 -2.28,3.32 -2.28,5.45l0 13.53c0,2.15 0.76,3.99 2.28,5.52 1.52,1.52 3.32,2.29 5.44,2.29l11.68 0 0 9.98 -11.68 0c-3.24,0 -6.22,-0.79 -8.9,-2.39 -2.68,-1.6 -4.81,-3.72 -6.41,-6.41 -1.58,-2.68 -2.39,-5.65 -2.39,-8.89l0 -13.71zm61.59 -3.36l0 -32.49 9.98 0 0 26.71 5.49 -3.16 3.49 6 -8.98 5.2 0 32.5 -9.98 0 0 -26.72 -5.49 3.12 -3.51 -6.01 9 -5.15zm54.44 27.14l29.46 -31.44 -29.46 0 0 -9.93 45.17 0 0 7.47 -29.61 31.59 29.61 0 0 9.93 -45.17 0 0 -7.62zm55.56 -23.78c0,-3.26 0.81,-6.2 2.39,-8.84 1.6,-2.66 3.73,-4.78 6.41,-6.36 2.68,-1.61 5.65,-2.39 8.89,-2.39l27.33 0 0 48.99 -9.97 0 0 -39.02 -17.36 0c-2.11,0 -3.91,0.74 -5.43,2.25 -1.52,1.5 -2.28,3.32 -2.28,5.45l0 13.53c0,2.15 0.76,3.99 2.28,5.52 1.52,1.52 3.32,2.29 5.43,2.29l11.69 0 0 9.98 -11.69 0c-3.24,0 -6.21,-0.79 -8.89,-2.39 -2.68,-1.6 -4.81,-3.72 -6.41,-6.41 -1.58,-2.68 -2.39,-5.65 -2.39,-8.89l0 -13.71zm56.39 -35.85l9.98 0 0 37.03 3.36 0 17.71 -18.77 12.97 0 -22.37 23.73 24.36 25.26 -13.95 0 -19.63 -20.24 -2.45 0 0 20.24 -9.98 0 0 -67.25zm58.31 32.49l0 -32.49 9.98 0 0 26.71 5.49 -3.16 3.49 6 -8.98 5.2 0 32.5 -9.98 0 0 -26.72 -5.49 3.12 -3.51 -6.01 9 -5.15zm26.06 3.36c0,-3.26 0.8,-6.2 2.39,-8.84 1.6,-2.66 3.72,-4.78 6.4,-6.36 2.68,-1.61 5.66,-2.39 8.9,-2.39l27.33 0 0 48.99 -9.98 0 0 -39.02 -17.35 0c-2.11,0 -3.92,0.74 -5.44,2.25 -1.52,1.5 -2.28,3.32 -2.28,5.45l0 13.53c0,2.15 0.76,3.99 2.28,5.52 1.52,1.52 3.33,2.29 5.44,2.29l11.69 0 0 9.98 -11.69 0c-3.24,0 -6.22,-0.79 -8.9,-2.39 -2.68,-1.6 -4.8,-3.72 -6.4,-6.41 -1.59,-2.68 -2.39,-5.65 -2.39,-8.89l0 -13.71zm55.9 0.08c0,-3.24 0.81,-6.2 2.39,-8.88 1.6,-2.68 3.72,-4.82 6.41,-6.4 2.68,-1.61 5.65,-2.39 8.89,-2.39l11.69 0 0 9.97 -11.69 0c-2.11,0 -3.92,0.76 -5.43,2.29 -1.52,1.54 -2.28,3.38 -2.28,5.51l0 13.53c0,2.11 0.76,3.92 2.28,5.44 1.51,1.51 3.32,2.27 5.43,2.27l17.36 0 0 -57.27 9.97 0 0 57.27c0,2.75 -0.97,5.09 -2.92,7.04 -1.95,1.95 -4.31,2.94 -7.05,2.94l-17.36 0c-3.24,0 -6.21,-0.79 -8.89,-2.39 -2.69,-1.6 -4.81,-3.71 -6.41,-6.38 -1.58,-2.68 -2.39,-5.62 -2.39,-8.83l0 -13.72zm55.9 0c0,-3.24 0.81,-6.2 2.39,-8.88 1.6,-2.68 3.73,-4.82 6.41,-6.4 2.68,-1.61 5.66,-2.39 8.9,-2.39l10.69 0c3.23,0 6.21,0.78 8.89,2.39 2.67,1.58 4.81,3.72 6.41,6.4 1.58,2.68 2.39,5.64 2.39,8.88l0 13.63c0,3.24 -0.81,6.21 -2.39,8.89 -1.6,2.69 -3.74,4.81 -6.41,6.41 -2.68,1.6 -5.66,2.39 -8.89,2.39l-10.69 0c-3.24,0 -6.22,-0.79 -8.9,-2.39 -2.68,-1.6 -4.81,-3.72 -6.41,-6.41 -1.58,-2.68 -2.39,-5.65 -2.39,-8.89l0 -13.63zm9.98 13.53c0,2.15 0.76,3.99 2.28,5.52 1.52,1.52 3.32,2.29 5.44,2.29l10.69 0c2.14,0 3.97,-0.77 5.45,-2.29 1.5,-1.53 2.26,-3.37 2.26,-5.52l0 -13.43c0,-2.13 -0.76,-3.97 -2.26,-5.51 -1.48,-1.53 -3.31,-2.29 -5.45,-2.29l-10.69 0c-2.12,0 -3.92,0.76 -5.44,2.29 -1.52,1.54 -2.28,3.38 -2.28,5.51l0 13.43zm54.16 -31.2l5.63 32.44 12.11 -20.67 9.42 0 12.1 20.67 5.62 -32.44 9.97 0 -8.45 48.99 -8.75 0 -15.18 -25.68 -15.24 25.68 -8.75 0 -8.51 -48.99 10.03 0zm71.14 0l12.71 33.94 13.01 -33.94 11.01 0 -26.01 67.44 -10.93 0 7.63 -20.06 -18.02 -47.38 10.6 0zm80.78 31.39c0,2.32 0.59,4.16 1.79,5.54 1.19,1.39 2.79,2.08 4.78,2.08l18.35 0c1.83,0 3.39,-0.63 4.68,-1.88 1.29,-1.28 1.93,-2.8 1.93,-4.61l0 -9.21c0,-2.02 -0.64,-3.74 -1.91,-5.15 -1.28,-1.42 -2.83,-2.14 -4.65,-2.14l-34.58 0 0 -34.28 48.62 0 0 9.93 -38.69 0 0 14.65 24.7 0c3.02,0 5.77,0.78 8.26,2.33 2.5,1.55 4.49,3.61 5.96,6.19 1.48,2.59 2.22,5.47 2.22,8.61l0 9.17c0,3.04 -0.74,5.78 -2.24,8.27 -1.5,2.46 -3.48,4.44 -5.98,5.9 -2.49,1.48 -5.27,2.2 -8.32,2.2l-18.35 0c-3.15,0 -6,-0.76 -8.5,-2.28 -2.5,-1.5 -4.47,-3.57 -5.91,-6.18 -1.44,-2.63 -2.14,-5.6 -2.14,-8.94l9.98 -0.2zm76.01 -30.73c0,-3.51 0.86,-6.68 2.57,-9.53 1.73,-2.86 4.02,-5.13 6.91,-6.84 2.89,-1.7 6.07,-2.55 9.57,-2.55l13.06 0c3.68,0 7.06,0.85 10.1,2.55 3.04,1.71 5.46,3.98 7.25,6.84 1.8,2.85 2.7,6.02 2.7,9.53l0 29.5c0,3.48 -0.9,6.64 -2.7,9.49 -1.79,2.85 -4.19,5.13 -7.21,6.8 -3,1.7 -6.36,2.54 -10.04,2.54l-12.15 0c-3.7,0 -7.06,-0.84 -10.08,-2.54 -3.04,-1.67 -5.45,-3.95 -7.27,-6.8 -1.8,-2.85 -2.71,-6.01 -2.71,-9.49l0 -29.5zm9.98 29.5c0,2.43 0.99,4.51 2.96,6.25 1.96,1.73 4.34,2.6 7.12,2.6l12.15 0c2.78,0 5.14,-0.87 7.09,-2.6 1.95,-1.74 2.93,-3.82 2.93,-6.25l0 -29.5c0,-2.49 -0.98,-4.62 -2.95,-6.36 -1.97,-1.76 -4.36,-2.63 -7.17,-2.63l-13.06 0c-2.48,0 -4.61,0.87 -6.41,2.63 -1.77,1.74 -2.66,3.87 -2.66,6.36l0 29.5zm53.55 -29.5c0,-3.51 0.85,-6.68 2.56,-9.53 1.73,-2.86 4.03,-5.13 6.91,-6.84 2.9,-1.7 6.07,-2.55 9.58,-2.55l13.06 0c3.68,0 7.05,0.85 10.09,2.55 3.05,1.71 5.47,3.98 7.26,6.84 1.8,2.85 2.7,6.02 2.7,9.53l0 29.5c0,3.48 -0.9,6.64 -2.7,9.49 -1.79,2.85 -4.19,5.13 -7.21,6.8 -3,1.7 -6.36,2.54 -10.04,2.54l-12.16 0c-3.69,0 -7.05,-0.84 -10.07,-2.54 -3.04,-1.67 -5.46,-3.95 -7.27,-6.8 -1.8,-2.85 -2.71,-6.01 -2.71,-9.49l0 -29.5zm9.98 29.5c0,2.43 0.99,4.51 2.95,6.25 1.97,1.73 4.34,2.6 7.12,2.6l12.16 0c2.77,0 5.13,-0.87 7.08,-2.6 1.95,-1.74 2.94,-3.82 2.94,-6.25l0 -29.5c0,-2.49 -0.99,-4.62 -2.96,-6.36 -1.96,-1.76 -4.35,-2.63 -7.16,-2.63l-13.06 0c-2.48,0 -4.61,0.87 -6.41,2.63 -1.77,1.74 -2.66,3.87 -2.66,6.36l0 29.5zm53.55 -29.5c0,-3.51 0.85,-6.68 2.56,-9.53 1.73,-2.86 4.03,-5.13 6.91,-6.84 2.89,-1.7 6.07,-2.55 9.57,-2.55l13.07 0c3.67,0 7.05,0.85 10.09,2.55 3.05,1.71 5.46,3.98 7.26,6.84 1.79,2.85 2.7,6.02 2.7,9.53l0 29.5c0,3.48 -0.91,6.64 -2.7,9.49 -1.8,2.85 -4.19,5.13 -7.21,6.8 -3.01,1.7 -6.36,2.54 -10.04,2.54l-12.16 0c-3.7,0 -7.06,-0.84 -10.08,-2.54 -3.03,-1.67 -5.45,-3.95 -7.26,-6.8 -1.81,-2.85 -2.71,-6.01 -2.71,-9.49l0 -29.5zm9.97 29.5c0,2.43 0.99,4.51 2.96,6.25 1.97,1.73 4.34,2.6 7.12,2.6l12.16 0c2.77,0 5.13,-0.87 7.08,-2.6 1.95,-1.74 2.94,-3.82 2.94,-6.25l0 -29.5c0,-2.49 -0.99,-4.62 -2.96,-6.36 -1.97,-1.76 -4.36,-2.63 -7.16,-2.63l-13.07 0c-2.48,0 -4.61,0.87 -6.4,2.63 -1.78,1.74 -2.67,3.87 -2.67,6.36l0 29.5zm81.45 11.21l29.46 -31.44 -29.46 0 0 -9.93 45.17 0 0 7.47 -29.61 31.59 29.61 0 0 9.93 -45.17 0 0 -7.62zm61.25 -27.14l0 -32.49 9.98 0 0 26.71 5.49 -3.16 3.49 6 -8.98 5.2 0 32.5 -9.98 0 0 -26.72 -5.49 3.12 -3.51 -6.01 9 -5.15z"/>
 </g>
</svg>
